$MeshFormat
4.1 0 8
$EndMeshFormat
$Entities
38 38 1 0
1 333.7934981759194 5374.320354546886 0 0 
2 308.5088094876825 5391.811769434962 0 0 
3 247.9323393250164 5438.749125628287 0 0 
4 181.4555493260245 5492.349998788188 0 0 
5 167.661388242422 5504.328139906233 0 0 
6 164.3945489325805 5510.106522680771 0 0 
7 164.7390736665402 5515.662453112936 0 0 
8 165.0838544880839 5521.218400153619 0 0 
9 165.4288911359231 5526.774363798687 0 0 
10 169.3666938522649 5532.108201068902 0 0 
11 555.5828560351018 5994.981788978836 0 0 
12 562.0470928825301 6000.627900012805 0 0 
13 575.1091369651815 6000.821947619796 0 0 
14 611.6961229855367 5973.734749926671 0 0 
15 689.691816420152 5914.992722665973 0 0 
16 724.2643448623762 5888.640273239123 0 0 
17 727.8745279142996 5883.238643335013 0 0 
18 724.7844824649736 5877.521276834024 0 0 
19 721.6864487892202 5871.806127731751 0 0 
20 718.5804357670746 5866.093200873402 0 0 
21 715.466452281246 5860.382501061727 0 0 
22 712.3445072169824 5854.674033057017 0 0 
23 709.214609461907 5848.967801577118 0 0 
24 706.0767679059005 5843.263811297419 0 0 
25 702.9309914409308 5837.56206685087 0 0 
26 699.7772889609344 5831.862572827975 0 0 
27 696.6156693616558 5826.165333776808 0 0 
28 693.4461415405129 5820.470354203015 0 0 
29 690.2687143964533 5814.777638569811 0 0 
30 687.083396829813 5809.087191298 0 0 
31 683.8901977421717 5803.399016765976 0 0 
32 654.6262378856146 5757.868467779207 0 0 
33 580.6939172843537 5650.454271015204 0 0 
34 549.5396046791541 5605.578759994571 0 0 
35 521.3884084200491 5566.470498977136 0 0 
36 441.9562729348984 5472.231113667737 0 0 
37 341.33634276333 5379.665154741412 0 0 
38 333.7934981759194 5374.320354546886 0 0 
1 308.5088094876825 5374.320354546886 0 333.7934981759194 5391.811769434962 0 0 2 1 -2 
2 247.9323393250164 5391.811769434962 0 308.5088094876825 5438.749125628287 0 0 2 2 -3 
3 181.4555493260245 5438.749125628287 0 247.9323393250164 5492.349998788188 0 0 2 3 -4 
4 167.661388242422 5492.349998788188 0 181.4555493260245 5504.328139906233 0 0 2 4 -5 
5 164.3945489325805 5504.328139906233 0 167.661388242422 5510.106522680771 0 0 2 5 -6 
6 164.3945489325805 5510.106522680771 0 164.7390736665402 5515.662453112936 0 0 2 6 -7 
7 164.7390736665402 5515.662453112936 0 165.0838544880839 5521.218400153619 0 0 2 7 -8 
8 165.0838544880839 5521.218400153619 0 165.4288911359231 5526.774363798687 0 0 2 8 -9 
9 165.4288911359231 5526.774363798687 0 169.3666938522649 5532.108201068902 0 0 2 9 -10 
10 169.3666938522649 5532.108201068902 0 555.5828560351018 5994.981788978836 0 0 2 10 -11 
11 555.5828560351018 5994.981788978836 0 562.0470928825301 6000.627900012805 0 0 2 11 -12 
12 562.0470928825301 6000.627900012805 0 575.1091369651815 6000.821947619796 0 0 2 12 -13 
13 575.1091369651815 5973.734749926671 0 611.6961229855367 6000.821947619796 0 0 2 13 -14 
14 611.6961229855367 5914.992722665973 0 689.691816420152 5973.734749926671 0 0 2 14 -15 
15 689.691816420152 5888.640273239123 0 724.2643448623762 5914.992722665973 0 0 2 15 -16 
16 724.2643448623762 5883.238643335013 0 727.8745279142996 5888.640273239123 0 0 2 16 -17 
17 724.7844824649736 5877.521276834024 0 727.8745279142996 5883.238643335013 0 0 2 17 -18 
18 721.6864487892202 5871.806127731751 0 724.7844824649736 5877.521276834024 0 0 2 18 -19 
19 718.5804357670746 5866.093200873402 0 721.6864487892202 5871.806127731751 0 0 2 19 -20 
20 715.466452281246 5860.382501061727 0 718.5804357670746 5866.093200873402 0 0 2 20 -21 
21 712.3445072169824 5854.674033057017 0 715.466452281246 5860.382501061727 0 0 2 21 -22 
22 709.214609461907 5848.967801577118 0 712.3445072169824 5854.674033057017 0 0 2 22 -23 
23 706.0767679059005 5843.263811297419 0 709.214609461907 5848.967801577118 0 0 2 23 -24 
24 702.9309914409308 5837.56206685087 0 706.0767679059005 5843.263811297419 0 0 2 24 -25 
25 699.7772889609344 5831.862572827975 0 702.9309914409308 5837.56206685087 0 0 2 25 -26 
26 696.6156693616558 5826.165333776808 0 699.7772889609344 5831.862572827975 0 0 2 26 -27 
27 693.4461415405129 5820.470354203015 0 696.6156693616558 5826.165333776808 0 0 2 27 -28 
28 690.2687143964533 5814.777638569811 0 693.4461415405129 5820.470354203015 0 0 2 28 -29 
29 687.083396829813 5809.087191298 0 690.2687143964533 5814.777638569811 0 0 2 29 -30 
30 683.8901977421717 5803.399016765976 0 687.083396829813 5809.087191298 0 0 2 30 -31 
31 654.6262378856146 5757.868467779207 0 683.8901977421717 5803.399016765976 0 0 2 31 -32 
32 580.6939172843537 5650.454271015204 0 654.6262378856146 5757.868467779207 0 0 2 32 -33 
33 549.5396046791541 5605.578759994571 0 580.6939172843537 5650.454271015204 0 0 2 33 -34 
34 521.3884084200491 5566.470498977136 0 549.5396046791541 5605.578759994571 0 0 2 34 -35 
35 441.9562729348984 5472.231113667737 0 521.3884084200491 5566.470498977136 0 0 2 35 -36 
36 341.33634276333 5379.665154741412 0 441.9562729348984 5472.231113667737 0 0 2 36 -37 
37 333.7934981759194 5374.320354546886 0 341.33634276333 5379.665154741412 0 0 2 37 -38 
38 333.7934981759194 5374.320354546886 0 333.7934981759194 5374.320354546886 0 0 2 38 -1 
1 164.3945489325805 5374.320354546886 0 727.8745279142996 6000.821947619796 0 0 38 1 2 3 4 5 6 7 8 9 10 11 12 13 14 15 16 17 18 19 20 21 22 23 24 25 26 27 28 29 30 31 32 33 34 35 36 37 38 
$EndEntities
$Nodes
77 116 1 116
0 1 0 1
1
333.7934981759194 5374.320354546886 0
0 2 0 1
2
308.5088094876825 5391.811769434962 0
0 3 0 1
3
247.9323393250164 5438.749125628287 0
0 4 0 1
4
181.4555493260245 5492.349998788188 0
0 5 0 1
5
167.661388242422 5504.328139906233 0
0 6 0 1
6
164.3945489325805 5510.106522680771 0
0 7 0 1
7
164.7390736665402 5515.662453112936 0
0 8 0 1
8
165.0838544880839 5521.218400153619 0
0 9 0 1
9
165.4288911359231 5526.774363798687 0
0 10 0 1
10
169.3666938522649 5532.108201068902 0
0 11 0 1
11
555.5828560351018 5994.981788978836 0
0 12 0 1
12
562.0470928825301 6000.627900012805 0
0 13 0 1
13
575.1091369651815 6000.821947619796 0
0 14 0 1
14
611.6961229855367 5973.734749926671 0
0 15 0 1
15
689.691816420152 5914.992722665973 0
0 16 0 1
16
724.2643448623762 5888.640273239123 0
0 17 0 1
17
727.8745279142996 5883.238643335013 0
0 18 0 1
18
724.7844824649736 5877.521276834024 0
0 19 0 1
19
721.6864487892202 5871.806127731751 0
0 20 0 1
20
718.5804357670746 5866.093200873402 0
0 21 0 1
21
715.466452281246 5860.382501061727 0
0 22 0 1
22
712.3445072169824 5854.674033057017 0
0 23 0 1
23
709.214609461907 5848.967801577118 0
0 24 0 1
24
706.0767679059005 5843.263811297419 0
0 25 0 1
25
702.9309914409308 5837.56206685087 0
0 26 0 1
26
699.7772889609344 5831.862572827975 0
0 27 0 1
27
696.6156693616558 5826.165333776808 0
0 28 0 1
28
693.4461415405129 5820.470354203015 0
0 29 0 1
29
690.2687143964533 5814.777638569811 0
0 30 0 1
30
687.083396829813 5809.087191298 0
0 31 0 1
31
683.8901977421717 5803.399016765976 0
0 32 0 1
32
654.6262378856146 5757.868467779207 0
0 33 0 1
33
580.6939172843537 5650.454271015204 0
0 34 0 1
34
549.5396046791541 5605.578759994571 0
0 35 0 1
35
521.3884084200491 5566.470498977136 0
0 36 0 1
36
441.9562729348984 5472.231113667737 0
0 37 0 1
37
341.33634276333 5379.665154741412 0
0 38 0 1
38
333.7934981759194 5374.320354546886 0
1 1 0 0
1 2 0 0
1 3 0 1
39
214.6939443255709 5465.549562208197 0
1 4 0 0
1 5 0 0
1 6 0 0
1 7 0 0
1 8 0 0
1 9 0 0
1 10 0 7
40
41
42
43
44
45
46
217.6437141249411 5589.96739955743 0
265.9207343975991 5647.826598045936 0
314.1977546702183 5705.685796534396 0
362.4747749429476 5763.544995022988 0
410.7517952159794 5821.404193511942 0
459.0288154889467 5879.263392000818 0
507.3058357621071 5937.122590489927 0
1 11 0 0
1 12 0 0
1 13 0 0
1 14 0 1
47
650.6939697024461 5944.363736296622 0
1 15 0 0
1 16 0 0
1 17 0 0
1 18 0 0
1 19 0 0
1 20 0 0
1 21 0 0
1 22 0 0
1 23 0 0
1 24 0 0
1 25 0 0
1 26 0 0
1 27 0 0
1 28 0 0
1 29 0 0
1 30 0 0
1 31 0 0
1 32 0 1
48
617.6600775850957 5704.161369397368 0
1 33 0 0
1 34 0 0
1 35 0 1
49
481.6723406775245 5519.350806322497 0
1 36 0 1
50
391.6463078492629 5425.948134204711 0
1 37 0 0
1 38 0 0
2 1 0 66
51
52
53
54
55
56
57
58
59
60
61
62
63
64
65
66
67
68
69
70
71
72
73
74
75
76
77
78
79
80
81
82
83
84
85
86
87
88
89
90
91
92
93
94
95
96
97
98
99
100
101
102
103
104
105
106
107
108
109
110
111
112
113
114
115
116
687.9404937934069 5829.224601116964 0
700.0345385141308 5843.189133975996 0
707.7434688507938 5861.991776516832 0
647.2974640702996 5899.573809551789 0
501.0331094610611 5610.821416768747 0
643.0957801740678 5802.092448679562 0
715.1866077864315 5871.639167026975 0
184.8851443111929 5512.338425757761 0
416.2712567127811 5532.580074118239 0
559.8844346854855 5708.750971285805 0
254.5230007359997 5480.934638368792 0
385.507256427396 5691.699742065082 0
537.9008399066639 5865.816249735694 0
702.6126816537451 5870.271354629266 0
295.7267795752512 5587.359288942567 0
300.706873000199 5449.187346611538 0
696.4274459517588 5859.229219222465 0
687.794299257288 5873.760581880303 0
679.8842770081236 5854.975800678008 0
305.9128223650208 5496.282869670804 0
607.7235705078825 5933.36199883782 0
597.8221372451887 5887.277909474612 0
339.3291125860387 5639.446773255336 0
403.862535135014 5629.463251746724 0
443.1851280087627 5675.234098897883 0
432.1986831445608 5742.652502957292 0
489.3503188284204 5797.25208492861 0
561.0631275968892 5803.124448063203 0
365.7341932566276 5577.315890719513 0
632.0260632898953 5865.106521165098 0
572.8452307665264 5972.828550252981 0
597.8848261442159 5839.26848178869 0
601.239616569198 5762.608931899374 0
212.6223112091565 5496.991937752301 0
210.401054734629 5532.527941489716 0
655.2361714592209 5829.901290025944 0
528.5154273450779 5657.893644554957 0
496.1780335052821 5711.803888201803 0
461.581803361469 5571.637092414992 0
347.9363483094616 5467.046198006527 0
563.0483470591068 5921.534037615937 0
357.8262154717812 5516.657007145423 0
663.9549594907121 5874.960866929368 0
703.1696111231618 5884.496818209791 0
259.1009552259593 5531.981284038595 0
169.723041340065 5518.141838552823 0
674.9471566157039 5834.951561901124 0
687.1971134858047 5838.833483810849 0
671.2044359521097 5816.623909104871 0
701.6043224789287 5849.671308734321 0
695.8728610124336 5838.674271141904 0
693.4806853228471 5832.9520525349 0
337.6003125703224 5423.168965768373 0
705.4668707920741 5854.90682782155 0
451.2218034893648 5619.323552233403 0
682.9739128916813 5820.31194595862 0
692.7801635009592 5848.125316201975 0
392.0125339969062 5484.040960411495 0
539.8103444250455 5755.270727124565 0
416.4527464477947 5582.90721271221 0
657.5733796207631 5850.733803284214 0
678.3816300723227 5889.556959847444 0
484.0267003619097 5655.015320131359 0
316.8726278845646 5540.355296603197 0
630.1867390720539 5833.345956097784 0
602.9547770624669 5803.117575922325 0
$EndNodes
$Elements
77 268 1 268
0 1 15 1
1 1 
0 2 15 1
2 2 
0 3 15 1
3 3 
0 4 15 1
4 4 
0 5 15 1
5 5 
0 6 15 1
6 6 
0 7 15 1
7 7 
0 8 15 1
8 8 
0 9 15 1
9 9 
0 10 15 1
10 10 
0 11 15 1
11 11 
0 12 15 1
12 12 
0 13 15 1
13 13 
0 14 15 1
14 14 
0 15 15 1
15 15 
0 16 15 1
16 16 
0 17 15 1
17 17 
0 18 15 1
18 18 
0 19 15 1
19 19 
0 20 15 1
20 20 
0 21 15 1
21 21 
0 22 15 1
22 22 
0 23 15 1
23 23 
0 24 15 1
24 24 
0 25 15 1
25 25 
0 26 15 1
26 26 
0 27 15 1
27 27 
0 28 15 1
28 28 
0 29 15 1
29 29 
0 30 15 1
30 30 
0 31 15 1
31 31 
0 32 15 1
32 32 
0 33 15 1
33 33 
0 34 15 1
34 34 
0 35 15 1
35 35 
0 36 15 1
36 36 
0 37 15 1
37 37 
0 38 15 1
38 38 
1 1 1 1
39 1 2 
1 2 1 1
40 2 3 
1 3 1 2
41 3 39 
42 39 4 
1 4 1 1
43 4 5 
1 5 1 1
44 5 6 
1 6 1 1
45 6 7 
1 7 1 1
46 7 8 
1 8 1 1
47 8 9 
1 9 1 1
48 9 10 
1 10 1 8
49 10 40 
50 40 41 
51 41 42 
52 42 43 
53 43 44 
54 44 45 
55 45 46 
56 46 11 
1 11 1 1
57 11 12 
1 12 1 1
58 12 13 
1 13 1 1
59 13 14 
1 14 1 2
60 14 47 
61 47 15 
1 15 1 1
62 15 16 
1 16 1 1
63 16 17 
1 17 1 1
64 17 18 
1 18 1 1
65 18 19 
1 19 1 1
66 19 20 
1 20 1 1
67 20 21 
1 21 1 1
68 21 22 
1 22 1 1
69 22 23 
1 23 1 1
70 23 24 
1 24 1 1
71 24 25 
1 25 1 1
72 25 26 
1 26 1 1
73 26 27 
1 27 1 1
74 27 28 
1 28 1 1
75 28 29 
1 29 1 1
76 29 30 
1 30 1 1
77 30 31 
1 31 1 1
78 31 32 
1 32 1 2
79 32 48 
80 48 33 
1 33 1 1
81 33 34 
1 34 1 1
82 34 35 
1 35 1 2
83 35 49 
84 49 36 
1 36 1 2
85 36 50 
86 50 37 
1 37 1 1
87 37 38 
1 38 1 1
88 38 1 
2 1 2 180
89 10 40 85 
90 20 21 57 
91 18 19 57 
92 77 63 78 
93 31 56 99 
94 63 72 82 
95 97 51 106 
96 50 37 103 
97 45 63 77 
98 72 63 91 
99 84 85 95 
100 78 63 82 
101 54 15 112 
102 10 58 96 
103 61 84 95 
104 14 71 81 
105 76 44 77 
106 85 40 95 
107 46 81 91 
108 47 15 54 
109 64 68 94 
110 31 32 56 
111 65 73 79 
112 65 41 73 
113 13 14 81 
114 39 4 84 
115 43 44 76 
116 44 45 77 
117 51 97 98 
118 83 60 109 
119 3 61 66 
120 12 13 81 
121 88 87 113 
122 47 54 71 
123 28 29 106 
124 76 77 88 
125 35 49 89 
126 73 62 74 
127 48 60 83 
128 71 72 91 
129 55 35 89 
130 18 57 94 
131 33 34 87 
132 51 98 102 
133 21 53 57 
134 40 65 95 
135 42 62 73 
136 81 71 91 
137 74 62 75 
138 40 41 65 
139 88 77 109 
140 45 46 63 
141 77 78 109 
142 34 55 87 
143 66 61 70 
144 71 54 72 
145 42 43 62 
146 48 33 60 
147 73 74 79 
148 75 88 113 
149 62 43 76 
150 94 68 112 
151 41 42 73 
152 60 87 88 
153 14 47 71 
154 30 31 99 
155 78 83 109 
156 37 2 103 
157 79 59 92 
158 2 66 103 
159 56 86 99 
160 32 48 83 
161 75 62 76 
162 63 46 91 
163 59 79 110 
164 60 33 87 
165 49 36 59 
166 72 54 80 
167 51 28 106 
168 67 53 104 
169 65 79 114 
170 75 76 88 
171 34 35 55 
172 74 75 105 
173 80 54 93 
174 36 50 108 
175 100 67 104 
176 49 59 89 
177 4 58 84 
178 78 82 116 
179 66 70 90 
180 16 17 18 
181 98 69 107 
182 70 61 95 
183 99 97 106 
184 3 39 61 
185 58 5 96 
186 82 80 115 
187 16 18 94 
188 64 53 67 
189 61 39 84 
190 72 80 82 
191 90 70 92 
192 55 89 105 
193 52 101 107 
194 79 74 110 
195 15 94 112 
196 57 53 64 
197 83 78 116 
198 56 32 83 
199 11 12 81 
200 27 28 51 
201 58 10 85 
202 92 59 108 
203 66 90 103 
204 59 36 108 
205 60 88 109 
206 50 90 108 
207 105 89 110 
208 67 100 107 
209 90 50 103 
210 26 27 102 
211 87 55 113 
212 79 92 114 
213 23 24 100 
214 74 105 110 
215 4 5 58 
216 97 69 98 
217 86 56 115 
218 24 25 52 
219 25 26 101 
220 22 23 104 
221 64 67 68 
222 115 56 116 
223 105 75 113 
224 89 59 110 
225 84 58 85 
226 90 92 108 
227 21 22 53 
228 69 67 107 
229 70 95 114 
230 93 54 112 
231 92 70 114 
232 68 67 69 
233 68 69 93 
234 101 98 107 
235 56 83 116 
236 82 115 116 
237 100 52 107 
238 111 86 115 
239 57 64 94 
240 55 105 113 
241 68 93 112 
242 80 93 111 
243 95 65 114 
244 27 51 102 
245 93 69 111 
246 86 97 99 
247 101 26 102 
248 24 52 100 
249 23 100 104 
250 69 97 111 
251 9 10 96 
252 52 25 101 
253 98 101 102 
254 80 111 115 
255 7 8 96 
256 53 22 104 
257 19 20 57 
258 97 86 111 
259 2 38 1 
260 2 3 66 
261 37 38 2 
262 5 6 96 
263 6 7 96 
264 8 9 96 
265 46 11 81 
266 15 16 94 
267 29 30 106 
268 30 99 106 
$EndElements
