# vtk DataFile Version 2.0
slab_mesh, Created by Gmsh 4.13.1 
ASCII
DATASET UNSTRUCTURED_GRID
POINTS 116 double
333.7934981759194 5374.320354546886 0
308.5088094876825 5391.811769434962 0
247.9323393250164 5438.749125628287 0
181.4555493260245 5492.349998788188 0
167.661388242422 5504.328139906233 0
164.3945489325805 5510.106522680771 0
164.7390736665402 5515.662453112936 0
165.0838544880839 5521.218400153619 0
165.4288911359231 5526.774363798687 0
169.3666938522649 5532.108201068902 0
555.5828560351018 5994.981788978836 0
562.0470928825301 6000.627900012805 0
575.1091369651815 6000.821947619796 0
611.6961229855367 5973.734749926671 0
689.691816420152 5914.992722665973 0
724.2643448623762 5888.640273239123 0
727.8745279142996 5883.238643335013 0
724.7844824649736 5877.521276834024 0
721.6864487892202 5871.806127731751 0
718.5804357670746 5866.093200873402 0
715.466452281246 5860.382501061727 0
712.3445072169824 5854.674033057017 0
709.214609461907 5848.967801577118 0
706.0767679059005 5843.263811297419 0
702.9309914409308 5837.56206685087 0
699.7772889609344 5831.862572827975 0
696.6156693616558 5826.165333776808 0
693.4461415405129 5820.470354203015 0
690.2687143964533 5814.777638569811 0
687.083396829813 5809.087191298 0
683.8901977421717 5803.399016765976 0
654.6262378856146 5757.868467779207 0
580.6939172843537 5650.454271015204 0
549.5396046791541 5605.578759994571 0
521.3884084200491 5566.470498977136 0
441.9562729348984 5472.231113667737 0
341.33634276333 5379.665154741412 0
333.7934981759194 5374.320354546886 0
214.6939443255709 5465.549562208197 0
217.6437141249411 5589.96739955743 0
265.9207343975991 5647.826598045936 0
314.1977546702183 5705.685796534396 0
362.4747749429476 5763.544995022988 0
410.7517952159794 5821.404193511942 0
459.0288154889467 5879.263392000818 0
507.3058357621071 5937.122590489927 0
650.6939697024461 5944.363736296622 0
617.6600775850957 5704.161369397368 0
481.6723406775245 5519.350806322497 0
391.6463078492629 5425.948134204711 0
687.9404937934069 5829.224601116964 0
700.0345385141308 5843.189133975996 0
707.7434688507938 5861.991776516832 0
647.2974640702996 5899.573809551789 0
501.0331094610611 5610.821416768747 0
643.0957801740678 5802.092448679562 0
715.1866077864315 5871.639167026975 0
184.8851443111929 5512.338425757761 0
416.2712567127811 5532.580074118239 0
559.8844346854855 5708.750971285805 0
254.5230007359997 5480.934638368792 0
385.507256427396 5691.699742065082 0
537.9008399066639 5865.816249735694 0
702.6126816537451 5870.271354629266 0
295.7267795752512 5587.359288942567 0
300.706873000199 5449.187346611538 0
696.4274459517588 5859.229219222465 0
687.794299257288 5873.760581880303 0
679.8842770081236 5854.975800678008 0
305.9128223650208 5496.282869670804 0
607.7235705078825 5933.36199883782 0
597.8221372451887 5887.277909474612 0
339.3291125860387 5639.446773255336 0
403.862535135014 5629.463251746724 0
443.1851280087627 5675.234098897883 0
432.1986831445608 5742.652502957292 0
489.3503188284204 5797.25208492861 0
561.0631275968892 5803.124448063203 0
365.7341932566276 5577.315890719513 0
632.0260632898953 5865.106521165098 0
572.8452307665264 5972.828550252981 0
597.8848261442159 5839.26848178869 0
601.239616569198 5762.608931899374 0
212.6223112091565 5496.991937752301 0
210.401054734629 5532.527941489716 0
655.2361714592209 5829.901290025944 0
528.5154273450779 5657.893644554957 0
496.1780335052821 5711.803888201803 0
461.581803361469 5571.637092414992 0
347.9363483094616 5467.046198006527 0
563.0483470591068 5921.534037615937 0
357.8262154717812 5516.657007145423 0
663.9549594907121 5874.960866929368 0
703.1696111231618 5884.496818209791 0
259.1009552259593 5531.981284038595 0
169.723041340065 5518.141838552823 0
674.9471566157039 5834.951561901124 0
687.1971134858047 5838.833483810849 0
671.2044359521097 5816.623909104871 0
701.6043224789287 5849.671308734321 0
695.8728610124336 5838.674271141904 0
693.4806853228471 5832.9520525349 0
337.6003125703224 5423.168965768373 0
705.4668707920741 5854.90682782155 0
451.2218034893648 5619.323552233403 0
682.9739128916813 5820.31194595862 0
692.7801635009592 5848.125316201975 0
392.0125339969062 5484.040960411495 0
539.8103444250455 5755.270727124565 0
416.4527464477947 5582.90721271221 0
657.5733796207631 5850.733803284214 0
678.3816300723227 5889.556959847444 0
484.0267003619097 5655.015320131359 0
316.8726278845646 5540.355296603197 0
630.1867390720539 5833.345956097784 0
602.9547770624669 5803.117575922325 0

CELLS 268 946
1 0
1 1
1 2
1 3
1 4
1 5
1 6
1 7
1 8
1 9
1 10
1 11
1 12
1 13
1 14
1 15
1 16
1 17
1 18
1 19
1 20
1 21
1 22
1 23
1 24
1 25
1 26
1 27
1 28
1 29
1 30
1 31
1 32
1 33
1 34
1 35
1 36
1 37
2 0 1
2 1 2
2 2 38
2 38 3
2 3 4
2 4 5
2 5 6
2 6 7
2 7 8
2 8 9
2 9 39
2 39 40
2 40 41
2 41 42
2 42 43
2 43 44
2 44 45
2 45 10
2 10 11
2 11 12
2 12 13
2 13 46
2 46 14
2 14 15
2 15 16
2 16 17
2 17 18
2 18 19
2 19 20
2 20 21
2 21 22
2 22 23
2 23 24
2 24 25
2 25 26
2 26 27
2 27 28
2 28 29
2 29 30
2 30 31
2 31 47
2 47 32
2 32 33
2 33 34
2 34 48
2 48 35
2 35 49
2 49 36
2 36 37
2 37 0
3 9 39 84
3 19 20 56
3 17 18 56
3 76 62 77
3 30 55 98
3 62 71 81
3 96 50 105
3 49 36 102
3 44 62 76
3 71 62 90
3 83 84 94
3 77 62 81
3 53 14 111
3 9 57 95
3 60 83 94
3 13 70 80
3 75 43 76
3 84 39 94
3 45 80 90
3 46 14 53
3 63 67 93
3 30 31 55
3 64 72 78
3 64 40 72
3 12 13 80
3 38 3 83
3 42 43 75
3 43 44 76
3 50 96 97
3 82 59 108
3 2 60 65
3 11 12 80
3 87 86 112
3 46 53 70
3 27 28 105
3 75 76 87
3 34 48 88
3 72 61 73
3 47 59 82
3 70 71 90
3 54 34 88
3 17 56 93
3 32 33 86
3 50 97 101
3 20 52 56
3 39 64 94
3 41 61 72
3 80 70 90
3 73 61 74
3 39 40 64
3 87 76 108
3 44 45 62
3 76 77 108
3 33 54 86
3 65 60 69
3 70 53 71
3 41 42 61
3 47 32 59
3 72 73 78
3 74 87 112
3 61 42 75
3 93 67 111
3 40 41 72
3 59 86 87
3 13 46 70
3 29 30 98
3 77 82 108
3 36 1 102
3 78 58 91
3 1 65 102
3 55 85 98
3 31 47 82
3 74 61 75
3 62 45 90
3 58 78 109
3 59 32 86
3 48 35 58
3 71 53 79
3 50 27 105
3 66 52 103
3 64 78 113
3 74 75 87
3 33 34 54
3 73 74 104
3 79 53 92
3 35 49 107
3 99 66 103
3 48 58 88
3 3 57 83
3 77 81 115
3 65 69 89
3 15 16 17
3 97 68 106
3 69 60 94
3 98 96 105
3 2 38 60
3 57 4 95
3 81 79 114
3 15 17 93
3 63 52 66
3 60 38 83
3 71 79 81
3 89 69 91
3 54 88 104
3 51 100 106
3 78 73 109
3 14 93 111
3 56 52 63
3 82 77 115
3 55 31 82
3 10 11 80
3 26 27 50
3 57 9 84
3 91 58 107
3 65 89 102
3 58 35 107
3 59 87 108
3 49 89 107
3 104 88 109
3 66 99 106
3 89 49 102
3 25 26 101
3 86 54 112
3 78 91 113
3 22 23 99
3 73 104 109
3 3 4 57
3 96 68 97
3 85 55 114
3 23 24 51
3 24 25 100
3 21 22 103
3 63 66 67
3 114 55 115
3 104 74 112
3 88 58 109
3 83 57 84
3 89 91 107
3 20 21 52
3 68 66 106
3 69 94 113
3 92 53 111
3 91 69 113
3 67 66 68
3 67 68 92
3 100 97 106
3 55 82 115
3 81 114 115
3 99 51 106
3 110 85 114
3 56 63 93
3 54 104 112
3 67 92 111
3 79 92 110
3 94 64 113
3 26 50 101
3 92 68 110
3 85 96 98
3 100 25 101
3 23 51 99
3 22 99 103
3 68 96 110
3 8 9 95
3 51 24 100
3 97 100 101
3 79 110 114
3 6 7 95
3 52 21 103
3 18 19 56
3 96 85 110
3 1 37 0
3 1 2 65
3 36 37 1
3 4 5 95
3 5 6 95
3 7 8 95
3 45 10 80
3 14 15 93
3 28 29 105
3 29 98 105

CELL_TYPES 268
1
1
1
1
1
1
1
1
1
1
1
1
1
1
1
1
1
1
1
1
1
1
1
1
1
1
1
1
1
1
1
1
1
1
1
1
1
1
3
3
3
3
3
3
3
3
3
3
3
3
3
3
3
3
3
3
3
3
3
3
3
3
3
3
3
3
3
3
3
3
3
3
3
3
3
3
3
3
3
3
3
3
3
3
3
3
3
3
5
5
5
5
5
5
5
5
5
5
5
5
5
5
5
5
5
5
5
5
5
5
5
5
5
5
5
5
5
5
5
5
5
5
5
5
5
5
5
5
5
5
5
5
5
5
5
5
5
5
5
5
5
5
5
5
5
5
5
5
5
5
5
5
5
5
5
5
5
5
5
5
5
5
5
5
5
5
5
5
5
5
5
5
5
5
5
5
5
5
5
5
5
5
5
5
5
5
5
5
5
5
5
5
5
5
5
5
5
5
5
5
5
5
5
5
5
5
5
5
5
5
5
5
5
5
5
5
5
5
5
5
5
5
5
5
5
5
5
5
5
5
5
5
5
5
5
5
5
5
5
5
5
5
5
5
5
5
5
5
5
5
5
5
5
5
5
5
5
5
5
5
5
5
5
5
5
5
5
5
