# vtk DataFile Version 2.0
step2_flat_mesh, Created by Gmsh 4.13.1 
ASCII
DATASET UNSTRUCTURED_GRID
POINTS 846 double
605.7529678401039 5945.771030352581 -39.25138092041016
582.6207477423116 5945.307564194326 -49.41808319091798
576.10126476215 5939.633714809703 -51.03578567504883
195.0008921760689 5474.853255968007 -69.83597564697264
187.107593685583 5464.15016299107 -68.53282165527342
186.7912218721991 5458.593987112091 -65.98743438720706
186.4750894803886 5453.037832476532 -63.45666503906249
189.8075443925479 5447.275561447809 -59.07309722900393
196.7997308842016 5441.314273610345 -52.98789978027343
203.8069959336469 5435.362480891104 -47.17188644409141
210.8293155161991 5429.420192463346 -41.69567489624023
260.6418633153432 5393.647806452876 -17.66134643554689
314.7829369732324 5358.222735336773 -9.338177680969295
318.487013763984 5358.103102208452 -9.155740737915034
326.0656879891357 5363.428204818651 -9.098498344421385
423.5860878857661 5455.778158451789 -8.898145675659178
438.328579216244 5472.270776987898 -8.981719970703123
489.2387959026292 5533.082281234984 -9.31903648376465
528.4282381258643 5583.18253295162 -9.602576255798294
563.423229407922 5627.970549198981 -9.525533676147461
587.5218603939506 5661.688415345386 -9.396460533142092
654.6262378856146 5757.868467779207 -9.325042724609379
683.8901977421717 5803.399016765976 -9.021188735961912
687.083396829813 5809.087191298 -9.015972137451172
690.2687143964533 5814.777638569811 -9.013016700744631
693.4461415405129 5820.470354203015 -9.011543273925783
696.6156693616558 5826.165333776808 -9.010459899902344
699.7772889609344 5831.862572827975 -9.008448600769043
702.9309914409308 5837.56206685087 -9.004067420959473
706.0767679059005 5843.263811297419 -8.995855331420898
709.214609461907 5848.967801577118 -8.982431411743166
712.3445072169824 5854.674033057017 -8.962578773498533
715.466452281246 5860.382501061727 -8.935307502746612
718.5804357670746 5866.093200873402 -8.89989185333252
704.66003027873 5876.622702843706 -10.2768611907959
629.3411105372543 5929.663329672637 -27.16886711120605
594.1868577912521 5945.539297273454 -44.2455215077619
566.8061337236495 5928.297606057691 -52.49570225827354
557.511002684863 5916.961497305331 -53.94556024571931
548.215871646108 5905.625388553009 -55.37508183903881
538.9207406076232 5894.289279801016 -56.77785309759338
529.6256095689168 5882.953171048754 -58.12332994989144
520.3304785301441 5871.61706229641 -59.43139527962256
511.0353474913593 5860.280953544052 -60.76007578433821
501.7402164529442 5848.944844792144 -62.14724457158616
492.4450854141677 5837.608736039796 -63.62598721115761
483.149954375407 5826.272627287467 -65.14675600466387
473.8548233367779 5814.936518535299 -66.59277879314392
464.5596922983903 5803.600409783425 -67.82773484034064
455.2645612596269 5792.264301031093 -68.69095868817568
445.969430220851 5780.928192278745 -69.19158259308458
436.6742991823307 5769.59208352671 -69.37384558822416
427.379168143665 5758.255974774496 -69.38290244609776
418.0840371049042 5746.919866022167 -69.32777574743892
408.7889060661583 5735.583757269857 -69.35586620746504
399.4937750278335 5724.24764851806 -69.4456486116744
390.1986439891378 5712.91153976581 -69.6131642091095
380.9035129503517 5701.57543101345 -69.79874090414461
371.6083819115631 5690.239322261087 -70.01188701869897
362.3132508729487 5678.903213508936 -70.23542683606566
353.0181198341601 5667.567104756573 -70.51246552533723
343.7229887953714 5656.23099600421 -70.78119245593203
334.4278577566996 5644.89488725199 -70.96882820016762
325.1327267181426 5633.55877849991 -71.03785057859328
315.837595679354 5622.222669747546 -70.95417442047183
306.5424646405653 5610.886560995184 -70.78883652457827
297.2473336019211 5599.550452242996 -70.71953505781227
287.9522025631702 5588.214343490679 -70.79165269407483
278.6570715243826 5576.878234738318 -70.99136794228544
269.3619404855961 5565.542125985958 -71.38266358003766
260.0668094471537 5554.206017234017 -71.80649476023606
250.7716784083652 5542.869908481654 -72.17783858227448
241.4765473695765 5531.533799729291 -72.42170457359934
232.1814163308325 5520.197690976982 -72.40914103512462
222.8862852921735 5508.861582224778 -72.10182884593803
213.5911542533848 5497.525473472414 -71.52836339588406
204.2960232145962 5486.189364720051 -70.74003005338827
220.7918250759276 5422.265715261324 -35.13286685295343
230.7543346356657 5415.111238059295 -29.47949389251808
240.7168441954587 5407.956760857227 -24.64464592772034
250.6793537554053 5400.802283655048 -20.75200896682579
271.4700780466792 5386.562792229814 -15.18497468040091
282.2982927783236 5379.477778006549 -13.1983593632577
293.126507509996 5372.392763783267 -11.63670331278247
303.9547222418654 5365.307749559855 -10.37361021684957
336.9012879776056 5373.689310777846 -9.1311025534821
347.7368879661669 5383.950416737128 -9.135280021608539
358.5724879545456 5394.211522696237 -9.106421882262405
369.4080879431095 5404.472628655521 -9.055528263346458
380.2436879314979 5414.73373461464 -8.999681176619118
391.0792879200872 5424.994840573948 -8.95376435879438
401.9148879086763 5435.255946533256 -8.923167774995811
412.7504878972655 5445.517052492564 -8.907440470540259
430.9573335509951 5464.024467719833 -8.939262139008484
446.8136153307505 5482.406027695876 -9.040519170851177
455.2986514453061 5492.541278403913 -9.09328169669573
463.7836875593217 5502.676529111304 -9.151276870299069
472.2687236735213 5512.811779818915 -9.203172876478629
480.7537597880952 5522.947030526973 -9.259891954627479
497.0766843473186 5543.102331578366 -9.384052206562973
504.9145727918534 5553.122381921549 -9.459461881996447
512.7524612365256 5563.142432264909 -9.518955799200898
520.5903496811554 5573.162482608214 -9.565067932257422
537.1769859464996 5594.379537013615 -9.615856656793994
545.9257337668763 5605.576541075279 -9.608339888890489
554.6744815872698 5616.773545136964 -9.580723838876832
571.4561064032524 5639.209837914432 -9.484093986476235
579.4889833984222 5650.449126629658 -9.437433487132292
595.9099075804178 5673.710921899627 -9.370424920776696
604.2979547668702 5685.733428453846 -9.36659228998845
612.686001953301 5697.755935008035 -9.383602603445786
621.0740491397681 5709.778441562275 -9.419470562852945
629.4620963262352 5721.800948116516 -9.443312465732232
637.850143512695 5733.823454670746 -9.445866600911556
646.2381906991693 5745.845961224998 -9.402320040800658
661.9422278498314 5769.25110502602 -9.257092546265364
669.2582178137994 5780.633742272445 -9.174225912686758
676.5742077779419 5792.016379519143 -9.089062629493492
711.6202330229305 5871.357951858533 -9.549177153423207
693.9001846014951 5884.199935247755 -11.53842877392636
683.1403389245236 5891.777167651619 -12.99881654607191
672.3804932468149 5899.354400056002 -14.71837128474587
661.6206475692881 5906.931632460257 -16.83336849558473
650.8608018915645 5914.508864864651 -19.49547257983855
640.1009562144891 5922.086097268588 -22.8982240712004
617.5470391886943 5937.717180012599 -32.81156345663107
681.0579202420872 5808.681467092836 -9.385966616193771
427.5014430700213 5474.531308357497 -9.689658515815765
484.5492167909021 5544.826521365821 -10.23827232607259
515.8316757589658 5584.960318285031 -10.49563043108024
321.6172690389388 5606.772620229805 -61.67057379805924
262.0903813859586 5405.367264335913 -19.52235164172609
284.0750828501712 5564.357336421152 -63.01148439165868
650.2676858809857 5901.680654158846 -18.39077791320264
413.8078924660599 5721.780192308959 -62.11106965077459
573.593559124327 5663.454558231997 -10.43708310065738
366.3941022200481 5666.449568240033 -63.32077840813157
648.6376737687847 5771.690145286017 -10.28497809493617
469.7294849384004 5789.882535796356 -61.55395901514741
448.7468207599024 5504.269150187686 -10.11909838625361
505.2035389652747 5834.623677735301 -56.69074526331299
539.2359905313995 5619.594605738241 -10.77754386810843
377.9458807336298 5430.218315068774 -9.994335920568416
544.0905332476664 5880.571405813945 -50.72561191386428
605.9093564612626 5709.502167044422 -10.37680772230105
245.2890227337678 5518.960886880743 -65.03011355543204
441.8440918224031 5755.874209539679 -62.67744244745779
692.9208892953548 5832.776497412498 -9.48401046978144
230.5254876618226 5428.401061928415 -33.94888279387885
345.0854248046855 5397.353729699913 -10.0649067850105
572.8023221187517 5915.650475430746 -46.59323209126402
681.2945316404537 5880.205709504471 -12.60315017774777
221.5134949757775 5485.301751846983 -61.98273851869011
293.9166133740221 5385.178091805592 -12.74252494794268
701.8758821059315 5848.953605944205 -9.467805254283549
627.8340929225569 5917.034510962535 -25.69981193813068
339.5976503967819 5631.177013265049 -62.78198439501598
263.9652468118347 5539.830735542211 -63.80443387039136
302.2567039444226 5585.806631351708 -62.48336632649908
394.6189034829365 5700.06221615557 -62.64195983713951
631.6100632283908 5746.021789977791 -10.40064042365998
525.6721930143399 5858.815092843473 -53.48970581918729
490.5289877550281 5813.204315330935 -58.10106247494102
399.130818968034 5449.534164039547 -9.870544656211951
589.692135080528 5686.986437128323 -10.39171202892445
663.9260134898823 5792.739519588647 -9.988957853500608
500.3602706909431 5564.760353777157 -10.37652299455337
468.1790116902332 5524.801959132979 -10.09757246530671
213.108360675195 5438.480845762746 -44.5736131411243
558.8081175409579 5640.416016727153 -10.41761061003387
197.7549635820315 5449.516021086206 -56.360227853361
687.5398022480391 5819.663262851357 -9.35775923289845
322.7278801159544 5376.116315834087 -10.03112921323674
704.9116052808481 5867.528730271722 -9.92113474868216
606.7214773364302 5930.393725385971 -35.60830379095363
587.1953387327923 5937.276001838539 -45.42239613949436
316.4925426969381 5365.069702729967 -9.665722668767955
193.0685706072115 5460.659831533852 -63.90370441170982
409.0804232227985 5459.353904719172 -9.874646931660669
396.5241526944971 5463.19571389117 -10.9318473773396
386.2604063003947 5454.118461026856 -11.01199319219699
383.9118047954582 5467.470437592441 -12.22051929659314
373.6061419959086 5458.945068148913 -12.37937648856449
371.3752061138247 5472.152782122715 -13.79063402496205
361.0261544800596 5463.685698000607 -14.00921836943545
358.8326082973319 5476.89502938566 -15.70685854502917
369.2073853185753 5485.39989415314 -15.44071585983477
348.4619173189199 5468.40155911134 -15.9964277263173
356.6214450317058 5490.160590229128 -17.7291849152179
367.1406299652068 5498.763887716208 -17.38079179372338
354.3765552743914 5503.511053215099 -20.15062753144814
364.9727715172254 5512.171067437273 -19.69188186045723
352.2978427369945 5516.974748688754 -23.00221122953896
362.7049645572007 5525.600236061264 -22.43838788609817
342.193440836309 5508.482481994455 -23.52019663801391
375.5596260247725 5520.867989913018 -19.23491414520439
373.2618178852359 5534.245456753924 -21.82749374653072
386.0246035010194 5529.500774466622 -18.7726944059875
383.7795251652049 5542.879720765866 -21.20689697154305
396.5075410726781 5538.081465102616 -18.29558556225005
394.3600910767012 5551.535224264249 -20.5774348695816
381.5545589045744 5556.36890606615 -24.06821423568018
392.1835187772318 5564.99505248177 -23.26152854028462
404.958106429675 5560.165282274294 -19.97311962399377
402.8080038754563 5573.604722260643 -22.50150042017107
415.8146004003505 5568.858262331565 -19.39222397116196
413.4291855131501 5582.230537615743 -21.83141500893971
426.2777872520236 5577.394235885561 -18.92142089614318
424.0311208534761 5590.832124795729 -21.25168086052784
411.2210571461982 5595.713127193201 -24.69265040877746
421.8538720879442 5604.31484158075 -24.00048382374939
434.6246906244602 5599.40115240162 -20.74747446293522
432.5095723879581 5612.885656575138 -23.39619471732818
445.243094748847 5607.959855576716 -20.28822508395429
443.1414077967034 5621.437690001226 -22.8536374076211
455.860308998212 5616.509984972862 -19.83675482095414
453.8894053245815 5629.925958686666 -22.29561630830656
441.026772535539 5634.944343140793 -25.89330236505332
451.7255120189482 5643.548510271788 -25.28464470759694
464.6899859554422 5638.457249144076 -21.71129551779725
462.4635186512398 5652.184458761833 -24.64867051386488
475.4374797927108 5647.116610899309 -21.11064055591509
473.278140612216 5660.903356680006 -23.94193126807736
486.2716524512089 5655.8011248943 -20.43001069559119
484.1922995159546 5669.634458263246 -23.13355809612339
471.111595048546 5674.74569286551 -27.31548312509437
482.0883472012481 5683.524599801865 -26.35951007317952
495.1671213974025 5678.389480622204 -22.22749448277627
493.0925056557402 5692.310056032053 -25.27039197643961
506.2167018862542 5687.157648778563 -21.23992832954796
504.1138247712479 5701.122911666887 -24.07957080783105
517.2591002359197 5695.957726706401 -20.21366349422981
515.173871445449 5709.95426353331 -22.8204719012158
501.9702995993921 5715.135222047778 -27.43660794093538
513.0757624133824 5724.000738547806 -25.90170820522273
526.3157455350023 5718.786658218592 -21.54643999463609
524.2287401883981 5732.880164318223 -24.36761899348759
349.932504956004 5530.429164215977 -26.39983359168733
537.4647375114462 5727.638498829643 -20.33495974582272
535.4287498379535 5741.806479711606 -22.91070026021512
379.3183505189114 5569.835719889832 -27.39951692772252
409.047721116508 5609.303083724412 -28.06261436723515
548.7697903053311 5736.68488478325 -19.21849529453746
546.6686212020644 5750.817675582546 -21.58773835913772
533.3730154692804 5756.043929258017 -25.93923057157147
544.6106869140286 5765.047119891098 -24.36838021343207
557.9724064314305 5759.752162787375 -20.38116078505542
555.8399782220216 5773.992713585159 -22.94657669902811
569.2040539973822 5768.760379756606 -19.32088190605764
567.0830565276708 5782.901638318348 -21.64366188274335
580.4050321280743 5777.655814793259 -18.34183212048278
578.2989554065907 5791.755930703765 -20.43499860523217
565.0279271920646 5797.028387945158 -24.3189481483678
575.5885190151337 5806.318628860085 -23.07949259098756
589.1944915410911 5800.706008206923 -19.3659487108947
587.0817918966845 5814.534337126768 -21.52174461280367
600.1649462630826 5809.184576665358 -18.27717060902114
598.0565444613169 5822.913490483656 -20.19714005799157
610.6801860545255 5817.92059333113 -17.3458705884215
608.5654516500774 5831.106417898151 -19.03441464768337
621.1178822720959 5826.778156815953 -16.49237194013903
619.0634403725762 5838.948927885878 -17.92804138515741
631.1698656614315 5835.213943957031 -15.71455734540786
607.8739017328849 5842.835966525487 -20.50666543346005
499.8113326023678 5729.207790728919 -31.31650938527798
438.8658872236054 5648.571086622855 -29.48487855242973
468.9411272561788 5688.617825553542 -31.24945126223741
629.0489912007899 5846.689521853871 -16.9916539660085
640.3488077654649 5842.75922566052 -15.04023783715359
398.6855169887189 5524.767082561958 -16.34774162458767
418.4692889307372 5555.597789862515 -17.29648490851143
574.205054336538 5820.358248869802 -25.68257963933358
488.3664647919203 5642.006060386397 -18.17439797517649
447.7728592048627 5594.462642122865 -18.05530852054088
542.4299277804316 5779.295189703465 -27.61245144557309
499.2493914055575 5650.675065847594 -17.5565804091558
539.5094690153414 5713.516927940895 -18.16179513464144
602.6889926070342 5795.328842867784 -16.54815246824371
582.5133546466045 5763.561665751235 -16.54089266232332
350.6446174834316 5455.185973656176 -14.25100538170041
338.086611232708 5459.828019136841 -16.29878201486912
519.3560486390558 5681.988984016818 -18.02466456909015
638.4587630333388 5854.227663487997 -16.19655747718627
627.4479472794347 5857.547846141713 -18.29210792124152
649.3072455347894 5849.960265962865 -14.40932638674577
651.2473557001208 5838.935520419329 -13.46186787867119
659.6591511634805 5845.711131834553 -12.95417033289385
623.8936965671625 5814.548809859382 -15.13661585581333
394.7319138972166 5476.881780895339 -12.10476228209648
340.2925393477655 5446.598993327433 -14.49139053266821
327.7432521754233 5451.283397645846 -16.60910198944553
325.5609573619845 5464.480828962409 -18.84466846348767
315.2273261787223 5455.962722239432 -19.24736233757925
313.0227543876875 5469.10431027686 -22.03507831794119
302.6932182049117 5460.62091349246 -22.5655707262726
300.4845317437901 5473.848209640877 -26.05686698135034
290.0938956068692 5465.324180959467 -26.75026391160233
304.8429689560108 5447.472241234741 -19.64687229973818
287.8725671852339 5478.627119345827 -31.04235735374015
277.463248150533 5470.020651554438 -31.91106565371989
298.3665934107132 5487.25896806966 -30.13183253202605
279.6933979766862 5456.791304376608 -27.41825641304266
267.0158202625565 5461.417462510684 -32.74317692050241
329.908154969134 5438.001834874241 -14.7342745267985
264.8120439337912 5474.74712967193 -38.08659391492061
285.6405166502724 5492.119987943035 -35.96268960781883
296.2270565127511 5500.866437869669 -34.82208735310444
648.9622706229881 5860.916142337685 -15.23448345399531
269.2905367768189 5448.253929438428 -28.0367838069599
501.2622485990798 5636.873092437927 -15.77472114345665
512.2905454296039 5645.504738528271 -15.22084614241758
490.3763690583146 5628.208639307059 -16.29043186604285
254.3209694983877 5466.065276807313 -39.05803477700832
488.6817461738938 5720.297088215445 -33.03663347052953
486.4823800521933 5734.429176214069 -37.6726365961313
475.3230547402242 5725.459397767771 -39.40872129988947
497.6823608271559 5743.379975187717 -35.66077572998715
661.5736457568735 5835.095681123793 -12.15950891475308
653.287562948781 5828.247221607392 -12.60855489447724
458.0301951099801 5679.835829855115 -32.17423217478992
455.7710445856033 5693.767804705612 -36.78777986043641
444.9529845408748 5684.895240109912 -37.62866558239531
368.6460009596844 5561.184495735826 -28.41916158582749
366.4008601126156 5574.835170696106 -32.48865124977142
355.6287860810927 5566.039438369181 -33.67987939450714
398.310741946489 5600.590347073334 -29.01229090819179
396.1223397763284 5614.315770668532 -33.09433814500202
428.1837873066484 5639.884556580626 -30.17830906742488
426.0176613925717 5653.623385714262 -34.42828742256609
385.2904849143397 5605.478540378475 -34.32807284530782
382.6206726433116 5619.245946990835 -39.28630916057816
669.3959142640243 5841.65427882796 -11.76104000756358
393.9063097011558 5628.15850604664 -37.7591828367443
372.1498584529435 5610.438640094355 -40.6518093667766
484.2968292955429 5748.619235958294 -42.66435846308216
495.5594864980679 5757.619675820584 -40.37442759596548
503.1995061532747 5623.154809137054 -14.27155309089354
492.5165929609198 5614.616557225338 -14.69464345459584
353.3263686851006 5579.749269660097 -38.46673067121334
342.6306738690918 5571.292930767992 -39.84507389731438
668.3884488730162 5851.962634104093 -12.40974407984367
677.1880475285611 5847.713233169972 -11.35659074558346
283.2237937216074 5505.721169807508 -41.491903267886
293.5491593722995 5514.526867825288 -40.23187893569327
251.8998458738817 5479.44782295159 -45.26835584650583
342.6517383609959 5433.232728554459 -12.94339243443592
323.3451073440312 5477.640875937046 -21.51665745333083
442.7581783211461 5698.718774200979 -42.71159349015244
432.319192048223 5689.729416945413 -43.41894025219403
306.9656709601867 5509.647468606269 -33.68307264287332
304.7427223086172 5523.437186403269 -38.74017083225828
380.2944019042817 5633.146825338471 -44.66876215617815
391.8138017161477 5642.098162638502 -42.91899122334001
663.3728929355503 5824.558704089989 -11.44462058508604
655.5312234148853 5818.193850046152 -11.84571821457021
332.076887975151 5424.541633311278 -13.13969990178158
593.6392944997115 5772.407368685839 -15.80311289470977
595.4900604810273 5758.686567927774 -14.43792331019766
584.5987310504183 5749.529497735847 -14.98825327090651
604.9837242734599 5767.351893125383 -14.02052683460093
597.7313966143352 5744.348373512232 -13.14205328941899
586.7671206830584 5735.345771238846 -13.61499749128129
281.8236251186054 5443.664981350053 -23.59876863973372
271.5209520608842 5435.133059442792 -24.01686952417539
283.7578118045172 5430.337247889503 -20.37935294442342
259.2806202412327 5439.803434101685 -28.51303003274762
409.2223112398356 5533.302054795144 -15.97240306700332
411.1119532997569 5520.144845071234 -14.41810785781383
421.3717653493947 5528.488986911925 -14.13520265661216
400.9911526102684 5511.764758681044 -14.67980708616419
413.2155530492237 5507.20259919115 -13.04443003078704
339.8771142354792 5585.586045331818 -45.62552746430767
291.1701118571377 5528.345617454817 -46.00279358675349
302.4834529003184 5537.294365442766 -44.25883931157347
315.6996217003836 5532.285697383834 -37.44990982983807
313.4918166266496 5546.169304120057 -42.7879943930127
379.648793929957 5493.953630469479 -15.18371959824552
329.3089625508667 5575.887624866549 -46.6026443417842
530.3926055389359 5690.781119543896 -17.18666288980411
532.4540226009226 5676.843517044349 -15.50488364203778
543.5041901996716 5685.612243761168 -14.81730333632575
545.591680650023 5671.698480044746 -13.4891075819739
534.553567745462 5662.951776120278 -14.06646638054567
482.1108363368588 5762.878103237914 -47.8665043115823
493.4050458247432 5771.905696113311 -45.33156090119887
506.8208343488624 5766.616869890373 -37.93901238992513
504.5622742152841 5780.551890503897 -42.59944997813609
678.5134382787277 5838.574981674714 -10.80804054543774
685.5396861544607 5844.440856906196 -10.50031256218109
684.5420660005217 5853.054489467202 -10.96981411114581
319.3063685274381 5429.451567818379 -14.98463839072801
321.42920261306 5415.910222645057 -13.32053171811873
308.7327115505673 5420.831751528212 -15.18906369761285
310.7602725169029 5407.29283266162 -13.46384165017079
298.156052704088 5412.22430591501 -15.3591223730861
241.4341387160581 5470.535409309215 -46.21875247432791
243.9404311385777 5457.427284348723 -39.8771750733816
231.5081174947446 5461.768597798634 -46.81948217759624
345.3739524885937 5557.691709858937 -34.77000750454218
505.1645094331271 5609.580204618098 -12.97394817023626
494.543039574681 5601.238693473363 -13.34035497864741
481.9922222830379 5606.125155278861 -15.08548752028852
484.0434439710905 5592.894590078981 -13.6817791315969
453.6289305381179 5707.799822845938 -41.84936223157747
440.6223936938528 5712.925716202721 -48.24043820554733
556.4217381450253 5680.432835523189 -12.93936737748628
554.5307818870906 5694.369447356927 -14.15421227448765
262.552979344512 5488.216638215767 -44.01784813928979
451.4772738250055 5721.969692266368 -47.29497369213611
470.9508371625824 5753.872377096692 -50.01542433963997
350.8211715272305 5594.499118579235 -44.14741196384652
645.1095116261798 5821.181649571168 -13.05778702736049
648.821519736201 5810.637661952181 -12.09389021015331
438.0541122926328 5727.492167463542 -54.28349973590117
403.1097681515139 5498.743999449267 -13.23752197229235
415.2983042228838 5494.597311695623 -11.85229881900725
424.9994214263145 5502.703926359115 -11.69561845853638
250.2158938595206 5492.411391096723 -51.34192920516075
471.3631111522545 5597.814543468623 -15.48250996192698
473.5810359848743 5584.569547150346 -14.00175175231852
326.1726394992423 5540.756334850641 -36.32886906735914
515.615934445526 5618.5868611895 -12.66506258071417
510.3108469607942 5659.357732544317 -16.88701670319904
233.9395376034481 5449.335679445117 -40.64294670470651
573.4984281020211 5740.573017414266 -15.62843151322414
575.4070819312149 5726.560026214485 -14.19957955088539
259.8980796478808 5502.598946243783 -50.87731383392536
477.5093301580171 5711.309002045465 -34.54597463272557
665.5078265900207 5814.286473776758 -10.77365674205666
518.2218552221274 5776.071391579675 -35.58067966383871
516.0468139982543 5789.956237056617 -39.95516578992996
436.768952310621 5662.310661552515 -33.62356098712378
423.7393024642155 5667.424804605921 -39.2405827773699
413.0138904422491 5658.712514499517 -40.24437326440852
410.5581768499929 5672.508793368303 -45.69074611048688
399.7897722763288 5663.823547453362 -47.00870476807758
261.4851924548621 5427.192300264825 -24.4762270393602
387.6126134536229 5591.852235877077 -30.07709967951024
404.9109786179001 5636.779584147926 -36.41952825411249
328.1398556734458 5527.17972176326 -31.75644940962141
222.2582138741642 5453.955412802572 -47.41413404432157
495.7321658867771 5588.430381675568 -12.26033326949129
518.2250944774426 5607.035734813864 -11.65327037911901
491.9398946182853 5785.592195042844 -49.8668153140579
467.1582577279447 5767.177964521115 -55.8555501169176
344.9939084424071 5419.665242696333 -11.61358302280043
322.4425838572365 5402.180974397823 -11.98525708012179
311.8490185590557 5394.647633240433 -12.16750686940928
672.3715878230657 5822.406879698707 -10.57659491246063
567.0630889306476 5689.515369181021 -12.45439337798231
565.6113061625915 5703.215854505349 -13.53862678323894
397.279434930377 5677.728467121532 -53.0267539784167
289.3808573069004 5542.334311153554 -51.89412177085008
449.5810551705725 5735.69516965508 -52.68705771536347
323.1446541314384 5554.824225958241 -41.89967046724232
310.7496540305774 5559.973476636518 -48.71032308315672
377.9280707389249 5646.596909500434 -50.34564762554474
365.6182953389036 5637.924099168566 -52.82566521268354
355.7720932977782 5428.564523965111 -11.43975292244938
546.2358462484917 5657.371066082658 -12.44289719538939
536.0401622202487 5648.913914984921 -12.86940051208665
219.4308548048048 5465.348275410548 -53.77159706057549
249.3801181068291 5431.473532553013 -28.93372628683351
588.2817568827753 5721.726271835796 -12.50843926807104
408.9559273171207 5685.963806103502 -51.03807366302603
325.7261069780104 5591.562137192178 -53.81495920913937
427.1419472429409 5490.218574972461 -10.672490175108
211.1847848530949 5457.741167983992 -54.01744311939201
386.6959991196501 5669.273823042465 -54.64584085600082
693.5005621729541 5849.022827548047 -10.07553738590907
692.8864784821018 5858.748644227288 -10.52622268125352
684.8367808181404 5861.128286045627 -11.31971395834767
690.0693570318883 5867.228180306656 -11.1346405301637
692.6322445611469 5840.482779428284 -9.798882014080188
580.2600717292995 5927.268717330155 -46.10997894134836
586.911576063522 5916.018764120793 -40.56906434998373
581.1009986180053 5903.493229071437 -40.09702806363346
594.9605125763326 5905.254783806195 -34.93550645509022
589.66570402099 5892.462646851677 -34.23772769277122
603.2439113276939 5894.283382837919 -29.73444947617893
598.188428752748 5881.661229878647 -29.06734183577696
584.5205557286142 5879.682347509497 -33.47598687984065
611.657991819068 5883.636780411187 -25.26292701607341
593.3144492463296 5869.018574680787 -28.3367931454501
579.5662462798425 5866.873528125319 -32.64172529827181
570.836074778415 5877.719204098477 -38.37587551689097
565.2969886689059 5865.818434764101 -37.89678231912973
574.4399518463858 5854.072440962103 -31.87582065475276
560.0378715098099 5852.676672890507 -37.00504264316077
616.3870520620062 5895.821129125898 -25.83014959331515
624.6492219409359 5885.431343111985 -22.10023291316064
628.1907056009049 5896.621234649295 -22.70143575268151
636.7180371085336 5886.676552751136 -19.56464066200031
568.5185790177989 5841.217228789775 -31.36802993297555
555.0746280029186 5838.908504872027 -35.8320370850747
583.3235762886546 5842.013710211759 -26.68916267590442
546.6054112611112 5849.716271935986 -41.81533673613048
541.500649211818 5836.469907816428 -40.72715496663572
550.1448806057492 5825.47989290357 -34.69328710974008
536.2303446124998 5823.20144554265 -39.68278932433849
544.9261240588899 5812.162259571036 -33.66537316293312
530.924219322947 5810.261651852015 -38.71853038615528
522.6499338169817 5820.833852782502 -44.95115795061963
565.9334227948684 5901.455560165162 -46.14294071265926
631.836581169155 5875.994991753596 -19.39371999991325
644.5225375192027 5877.916693203781 -17.27218299941203
540.0769926220235 5797.743458463765 -32.24182833587498
516.7705988751333 5808.067222239334 -44.29294199187031
708.9625069657641 5860.231564944219 -9.368864438963485
251.5595095251742 5418.844039814267 -24.78216420005572
405.5991283732758 5486.465838020566 -11.99600497680738
435.9191795376553 5497.126825116336 -10.52248876624022
435.5723776130485 5510.293907803197 -11.42522193701623
446.8170448567577 5518.890755329843 -11.17825092961468
670.9577733582953 5831.94712798675 -11.13598571026959
679.5895515550683 5830.115167343494 -10.34424304372989
507.7532240538192 5818.863466718135 -51.31095759910288
669.314341031642 5803.04607812256 -9.996966374412393
659.3178864484743 5802.999520987973 -10.78158302643228
651.5163739302536 5794.101690117304 -11.03692480377441
656.377107161502 5782.775281834389 -10.1566066987732
643.604918957436 5784.794856801543 -11.28251218399105
635.2494550439765 5774.884190071621 -11.52223296975725
630.8970915372216 5787.511716909283 -12.60334923031701
623.181224442512 5775.660665417338 -12.67789325957057
627.8963089150282 5765.084386709757 -11.65205559112633
616.338691705622 5788.450300717222 -14.22233969024052
639.8854546306203 5795.866417672676 -12.18018064665026
375.9032891241785 5445.731292503622 -11.16208851958372
560.8888112884492 5812.964369711594 -28.34832989664329
502.4976998004827 5805.354552966405 -50.22169690262022
553.2739525094407 5891.1738575048 -49.25832181135394
390.4306242819279 5502.916820590044 -14.93135041730173
417.5121812597561 5482.088802943394 -10.79103208525297
407.6176063302129 5473.37547833321 -10.87536595504522
580.6783834762841 5697.823837476281 -11.69912681586749
460.7910061444951 5589.519243837259 -15.84772699443875
463.1805458834064 5576.25405038289 -14.2966598367129
475.5316922631553 5571.486707364687 -12.73621266616839
465.2650373160552 5563.157351384545 -12.97660575279731
452.9398481771078 5567.911542692056 -14.56171734547534
455.0074191351969 5554.836519311271 -13.20966622739001
442.4420433393148 5559.587805636267 -14.86043971752848
444.5726413673959 5546.509517021424 -13.4652257172101
455.9130715149606 5541.146279864808 -12.05693703728928
478.2034825481527 5556.523901352253 -11.42413289271228
445.8191999634084 5532.776982598845 -12.25174577722095
434.0808556558508 5537.921765453759 -13.71839656196307
440.3315207514106 5572.684786229383 -16.44736758738468
636.3736570703772 5813.756872163237 -13.56907292971401
603.6568355431234 5780.869463982912 -15.20243575210392
435.5599346229117 5742.994797227667 -60.7314240014384
469.024163825038 5611.254441429764 -17.22708845470158
456.4713715748526 5756.35231376945 -56.90569185373263
206.5689945225676 5469.110904092619 -61.49260723514593
392.544018463482 5489.915208879354 -13.42691817401449
671.4665200242034 5886.76629959434 -14.07693536822132
670.269037639925 5875.022044845196 -13.52469795291618
658.1151846819103 5880.200393037921 -15.38891952655302
659.5144593694158 5868.4189623877 -14.39438894038185
224.2359408656595 5441.563790577014 -41.3383381222906
434.4402181905303 5523.973825704188 -12.53203582017045
613.3810234612004 5804.433619484185 -15.78155211301587
600.5780132118821 5917.412649609982 -35.33024962821415
659.1616239110116 5856.65281010505 -13.67597937909441
420.8884272252656 5542.189009454242 -15.51556438672854
431.41034725298 5551.139487652841 -15.22591611282749
685.9202539633981 5836.171319594185 -10.11769164502461
333.8508538000885 5386.706714302083 -10.07195505842751
418.5631897605732 5466.612165007382 -9.74949262160917
355.0576977104657 5408.570568529375 -10.13336828915039
591.3139336209375 5786.453904873412 -17.45967851497825
246.5755180456257 5444.771734081742 -34.20239000565135
277.2200134398196 5534.587613061653 -54.8738765386859
294.2743210264458 5438.954854947391 -20.04555315937813
423.5977069566455 5732.297500306344 -61.78815045421489
660.5740398728524 5893.883927922829 -16.01706244658574
459.2612064917289 5515.064232263781 -10.08788424285166
608.2959636364402 5906.617971474016 -30.31577501390743
613.9222478532911 5917.779945830664 -30.41560667451444
619.5074555463957 5874.175809169183 -21.8500524128787
606.9989628806702 5871.21693836533 -24.62440366307665
601.4679058115332 5859.599560648833 -24.34426090490885
588.0134720434517 5856.509473078551 -27.77727708073063
311.5127537751954 5373.770347185034 -10.52425804986487
623.6432217312043 5735.016738491818 -10.43550677136343
617.9823313829201 5748.184630878097 -11.5620396799311
377.6782927242471 5507.49655220698 -17.05169124575319
485.5118550805943 5579.973016591576 -12.51819120823052
523.280723174209 5654.166213583231 -14.66171869354018
525.2532934334838 5640.218202261347 -13.32350525264759
537.4763053706497 5634.654326334257 -11.79954463473438
527.4365079104613 5626.399027925339 -12.1417685476692
407.4009609958154 5546.811804292176 -17.78726662885995
508.4151800931372 5595.717189633749 -11.70791645671506
628.6684755902946 5801.531548142902 -13.67313328494276
293.0077672076114 5575.502456197829 -62.91600824095564
311.6444266268643 5596.575649082457 -62.3091169726543
336.3164986542255 5601.866188207452 -52.9592758068983
347.9730332199956 5608.274496392079 -50.1180546406056
333.0985815940996 5617.73399625938 -60.56958158650165
639.8505178673246 5909.900549223119 -21.47187136630382
228.3094725451838 5495.507115114859 -63.34138644191881
237.2195124771647 5506.430185132533 -63.75744327463688
276.2162580978109 5550.623265617316 -61.63890860958021
266.3603830934539 5526.015715022451 -57.00731032405503
597.5530118815838 5698.238713935062 -10.39027425331677
298.8835261594915 5397.970042220549 -13.61078511955959
285.9616404947831 5404.124776200101 -15.75967322404308
285.5548995162201 5416.916056276233 -17.70995863873206
273.657728595385 5410.379150006082 -18.47288149189549
256.7373159938666 5452.956520214762 -33.48744211927988
228.056898334075 5473.585458345927 -53.55629933586999
237.9372624730521 5484.141293152492 -53.62685016768246
582.0875988401107 5674.660990064741 -10.34502828178387
534.510077803001 5869.8125333197 -52.31471856066753
549.442901291734 5864.894562967324 -44.33623401644802
437.16535356037 5585.971562818258 -18.45506751840863
458.3424240122849 5602.920118568014 -17.6654738211137
466.9084000595102 5624.753464740084 -19.25483468860236
612.9541342407787 5723.278150195768 -10.59328570518039
465.828644855929 5549.282011077784 -11.86524820163977
404.2194554085034 5711.011734656919 -62.36300286781064
417.3015915273331 5708.135434110343 -55.60240440650289
517.3329667766894 5844.995871022432 -53.70303792027529
317.6345300839377 5518.608368763051 -32.70496917651292
319.5100034665169 5504.732119584378 -28.4043295151384
308.8491864917494 5495.884519737621 -29.24387717474673
514.1763393285714 5631.789455246573 -13.81484964249511
349.098854341456 5642.328807103282 -62.48976009525953
354.6019764960062 5628.266800482379 -54.39902182461325
361.9582206772577 5653.759789565197 -60.56002541674224
638.465887619561 5759.445071545626 -10.51826102414594
558.7790916613936 5664.373334537926 -11.70729341707058
273.2985243582772 5422.733501317522 -20.8763039394429
531.6890519806685 5606.134825830185 -10.58052162266998
317.278594948008 5442.728084567996 -16.92664029934134
381.9031870864189 5480.962289018744 -13.60528389717578
386.2273427499487 5687.14384719034 -61.64937473647379
478.8212404220889 5801.558327884013 -60.59424417376872
521.3619814944964 5668.089055091366 -16.20398389982558
315.9883095112566 5580.866440427862 -54.10590299655502
369.3332268257377 5623.833179779283 -46.18723662762814
292.276287993687 5452.142706470414 -23.09636813586188
306.7095912575816 5434.210491892667 -17.23485712265092
279.7415088958076 5520.381432468614 -48.30868227720561
429.5234189646087 5564.345413959762 -16.85538567989258
553.872207646592 5788.738240696515 -25.95948119149774
530.0682670391543 5787.069563437773 -33.5423950756987
358.0946582146858 5552.567582592465 -29.39879321449215
668.8278089099858 5863.10576790253 -12.99225385870459
406.9410272936248 5622.927368438528 -31.95372095097165
388.3173106263936 5516.30591711586 -16.70846693193802
508.9039123522934 5752.32762295594 -33.51307042998548
335.9293202845146 5473.08409924734 -18.45436848016244
333.7188387277899 5486.220953758668 -21.01954835997938
497.2346652629088 5664.513994901812 -19.67657931697321
576.8949937338549 5712.283730698356 -12.98109303492138
563.9163693331943 5717.431885511336 -14.85094176756444
508.2745609401519 5673.249482659179 -18.86870803695169
510.9652179471955 5738.112848730001 -29.48215784146486
296.1975646432366 5425.579118074836 -17.48296470423617
374.4778324166824 5596.649224534339 -35.6657830238883
585.5190322196828 5827.817117791243 -23.78717689503233
388.6339907401969 5439.807073196134 -9.913907281230353
528.3188941910989 5704.75428974749 -19.18350167481541
508.4846216251101 5574.556327298496 -10.40039476235709
492.1002192956979 5554.847030751084 -10.34008284565642
477.8631510387032 5778.104908578153 -54.34929721351916
566.24405234696 5651.438703729936 -10.40588078720407
460.2859590983003 5665.974065919546 -28.11441242173431
363.207960662531 5450.515538536879 -12.57233818706613
473.1590478206634 5739.650810146559 -44.60666203991907
490.9511512065075 5706.26704454731 -28.86304100355161
479.783197576317 5619.636275318098 -16.75308097889529
528.0216381522125 5833.909949618923 -45.9144311064388
600.1917018076367 5730.169577090988 -11.98334950876988
571.3014241475972 5754.624986474693 -17.33417935890472
560.1330862013414 5745.740317930166 -18.21288137802501
346.2800120688614 5481.61269387125 -18.0767126096433
300.8082708844926 5550.494739590094 -49.6384154887377
477.6315957291311 5633.377673633636 -18.73612152528112
371.0333728248048 5547.703524812401 -24.85868923703156
479.9465185920668 5697.430579360978 -30.14252277863234
419.7861727165574 5617.821465480116 -27.20816473172642
449.5896520666443 5657.263400425572 -28.81032376227767
450.7434273128499 5581.038662500229 -16.1176141500013
476.5435622619299 5534.744987070002 -10.15362962721574
400.6332515460226 5587.078891718542 -25.48483787609164
541.4684575447636 5699.541864176701 -16.35690132636539
344.1649067433769 5494.864963513523 -20.55106413335899
430.4421656657733 5626.353352081153 -26.49845828445978
522.1580262478615 5747.073679247696 -27.66029471955629
488.065537275199 5567.216864767544 -11.40351828880952
333.1691816307101 5411.606118988595 -11.9166348364277
596.5512015234302 5835.694287792134 -22.15514787098461
576.2055866769892 5890.373444949398 -39.08787124321521
275.2154269796293 5483.442086857748 -37.06182276792867
360.4005018418741 5539.055063923422 -25.66476042814329
310.8288237310632 5482.236173791766 -25.33399819415662
520.1442319187546 5761.417447858857 -31.4096292555507
423.4518814880447 5515.468015173468 -12.81215677127916
366.5624469816353 5419.150551260132 -10.04466225169029
531.4746640572961 5770.824106954814 -29.46296870917026
389.9786264513007 5578.425497782172 -26.39493003466085
552.5797611097398 5708.400223982055 -15.57692597524842
466.73659552635 5702.464951459505 -35.71910587353632
550.4421827154579 5722.325364401129 -17.26224885607633
348.0631533439299 5543.924700310174 -30.17674390768694
353.0194357448381 5441.930962502974 -12.75161786453254
615.7589679702083 5861.984966946465 -21.14253825563894
689.4949390711477 5825.339422009785 -9.43706255267649
447.3933336538914 5671.002752640539 -32.89970011451431
464.5491963438317 5716.58656364849 -40.71716875719863
376.9779728495832 5583.269601824914 -31.25163717867257
272.2427313724049 5497.531740117967 -43.27135535867716
648.3804920269589 5889.603421395454 -17.64865484713893
417.6672597150812 5631.450340913931 -30.98122429084438
283.624879467793 5391.931732459011 -14.46079434790025
462.4323772104067 5730.694010367114 -46.02565005091326
434.4253765913514 5676.032577680637 -38.34249673574534
364.002920697772 5588.439754321749 -37.10842958870785
705.5129092246184 5854.569944811938 -9.415140546676533
701.2892290324809 5860.121693506831 -9.922376425541115
562.1878299328109 5731.67732494618 -16.38334020738738
321.3418513803923 5490.986108470335 -24.67572123837332
699.0430783799511 5842.712128378214 -9.435921743430301
642.7807600083277 5831.791346761408 -13.978654175429
460.3259507003909 5743.968331864949 -51.23128634961865
460.1102281795038 5779.159023093104 -62.64977274248416
421.6465296700138 5681.1872426222 -44.42811633616863
415.4848395714164 5645.045501524415 -35.29672864167247
205.0932761833333 5444.031985721218 -50.47851850099326
362.0133185954197 5601.636140635808 -41.92063626717144
563.5538102754288 5827.93511366832 -30.40628057402542
558.0195357695341 5877.934191191463 -43.82175759672315
219.8981859589607 5432.026321198569 -39.18638017997823
331.8576639128651 5499.952838881944 -24.10454396760153
435.3392314323523 5483.142418428959 -9.720388769365028
550.2340017220073 5629.913831824946 -10.5181300748712
402.504450869487 5650.08610593624 -41.3571300544697
427.2954180271208 5718.266779021782 -55.21113280571312
696.7030869294073 5872.67044872183 -10.79025900634623
365.5476653165269 5437.488016977787 -11.34248830952313
683.7558947549178 5814.686552537361 -9.425858175977018
389.443201365413 5655.183265125714 -48.33668237285159
329.9638711910496 5513.475940607369 -27.66338872310719
568.8497098462012 5675.597986147483 -11.45724250183217
532.8976503880799 5846.983314431456 -47.09760492666892
698.5083147248273 5854.295425301928 -9.908397147908493
375.5969524004229 5676.809302681429 -62.80067426807336
676.6554217550143 5856.70452388692 -11.85601451303441
633.4075622009291 5823.878463188028 -14.58288814201015
523.365837778277 5594.909089070462 -10.53812311812332
340.4477331732235 5521.900112657135 -26.88512777212771
552.8420723641538 5801.562548551834 -28.69216453440956
269.0070109389462 5512.201465737668 -50.28579856107039
638.4724003816233 5866.386290933495 -17.24163581744641
237.5610610792503 5437.465555826113 -34.75974349584354
620.7640275452136 5906.78427547138 -26.26514059867948
456.9339483600143 5528.041806953123 -11.05629723854486
590.813876248324 5709.360823076449 -11.51382422730157
495.8161581127393 5826.114564622327 -58.96126823950738
271.6357365915804 5398.136295391922 -16.77260715869345
338.1638179925186 5535.458866492588 -30.92119872259219
240.5724728573404 5420.297047719941 -28.12058152964263
609.9854381468776 5739.348359569687 -11.71317987403119
200.5572822423696 5458.749167072121 -59.40525052869156
430.2170230949749 5703.281215268606 -48.78194087257152
419.7729521444348 5694.52918656182 -49.72817163541917
497.3366202525048 5576.602947442346 -11.32058411100195
297.3150309300444 5562.983109948063 -55.88174837641394
254.1138540457426 5530.650603350904 -65.29658400489768
618.0998122654146 5850.17305821219 -19.26518899633621
335.5620717554989 5549.467867870831 -35.70325925244855
449.8044551398037 5768.60688255137 -63.67642115565953
607.0416566781889 5753.255944908493 -12.84044482544084
332.4857955035101 5563.754940059027 -41.2586856421384
213.9672428037692 5447.793911755278 -48.27225564932273
592.7569671013321 5926.871673457288 -40.59464265601228
674.5637957012968 5812.866999853281 -10.00214246781947
502.0962905551189 5793.17168550592 -47.13674726380918
345.2152974512594 5620.266207473821 -55.79487958496594
306.1209519489388 5573.211642632737 -55.6674295324781
524.1193667175851 5798.687265245586 -38.70430871400418
319.3736677392174 5568.804996626367 -48.21532210629261
407.0981986756649 5698.047960789271 -56.22530080745148
358.5477851735603 5615.452577476288 -47.99603937412659
262.5798673564028 5415.702943200584 -21.53935852353517
597.7726137394245 5848.280686362748 -23.62807961418958
680.164428017394 5868.356341454785 -12.11249062571894
491.1935674272939 5800.0492359267 -54.22591509758755
377.1153673571505 5660.304920164199 -55.74103340295941
248.1880836182305 5505.670456334902 -57.8940410502989
697.4608985276636 5837.079208979569 -9.338062079202103
681.9487550127379 5822.245131299129 -9.840701719388459
192.409112029458 5454.638733454768 -61.32900522231473
546.8363525739444 5643.359519782542 -11.52548262402346
302.1762320091769 5378.367422728914 -11.48736621352059
638.8935902801315 5898.552212160621 -20.3994373063742
537.8256467516532 5858.044355099588 -47.73773751329591
197.1952441162283 5465.895713191634 -64.42972187942831
466.1715375243418 5536.648088594333 -10.96645034036877
712.3073588235115 5865.34605137467 -9.30334390069398
677.080092499028 5804.00198827076 -9.482321606296241
574.8572854137227 5831.595006072231 -27.44155246569618
578.4638213139417 5685.933823484168 -11.21063495470856
564.9460143959049 5887.644517415652 -43.18763408455286
322.3245635553734 5388.717311198513 -10.92967446810938
445.1063453498749 5492.454700665939 -9.666694850332753
688.4263176441277 5874.5321230471 -11.61738424891372
289.5261732508316 5553.971743225074 -56.19729655148686
616.3965685788457 5762.039827038956 -12.51059933100096
303.7382399672128 5388.508629551769 -12.25375568631008
449.3610152632683 5747.5453101548 -56.82508784386765
239.4594449839503 5495.539214626468 -57.86986665078524
505.8652709564053 5584.680740543739 -11.19371181878865
697.1719513513452 5865.259539406865 -10.4470337808873
257.2650920432103 5516.81837273939 -57.94011281628016
480.8567372370907 5790.265569568617 -56.4653948607054
516.5444086436776 5830.683374900906 -50.29762994040909
686.2343884056197 5830.297118538962 -9.854575208086771
650.5904089706102 5870.241560994052 -15.71120678006666
398.0107618137979 5688.898764991231 -56.83691103101124
333.5210693709671 5398.570819420337 -10.89516477702368
526.1339038029449 5615.977805633469 -11.57958182547231
555.3806920743494 5651.391728172043 -11.26348796842842
253.3878678187603 5409.701403464897 -22.13291020887766
599.6564043489496 5719.184462427243 -11.36798268425072
597.6022787234876 5937.172605408155 -40.85424168817652
474.7840366459646 5544.443773077694 -10.86823990197228
343.7747848700999 5408.441868298689 -10.88233710498993
647.238612471707 5801.644616200796 -11.78150171241187
619.3029172347567 5927.232166109166 -30.21093846164911
625.7517267291196 5755.452489086347 -11.32069200307723
510.8293084479988 5799.025458424011 -44.63822487181654
657.2946140473953 5811.529376690766 -11.35135985043032
630.2541041454638 5906.55693734448 -23.50223256996862
216.0313624177815 5475.281713482065 -59.936927874978
612.5888759807608 5775.196688058718 -13.73763914196904
205.7115099329197 5451.566450723763 -53.64876382150617
627.0830821693944 5867.829197382645 -19.44387893455965
312.212391812042 5383.990545072345 -11.24781957449313
239.8526361451124 5429.36308146816 -31.19445759756963
609.4056250365941 5853.031119919729 -21.43941103549929
640.1975438998402 5804.687423226359 -12.62800740038447

CELLS 1726 6706
1 0
1 1
1 2
1 3
1 4
1 5
1 6
1 7
1 8
1 9
1 10
1 11
1 12
1 13
1 14
1 15
1 16
1 17
1 18
1 19
1 20
1 21
1 22
1 23
1 24
1 25
1 26
1 27
1 28
1 29
1 30
1 31
1 32
1 33
1 34
1 35
2 0 36
2 36 1
2 1 2
2 2 37
2 37 38
2 38 39
2 39 40
2 40 41
2 41 42
2 42 43
2 43 44
2 44 45
2 45 46
2 46 47
2 47 48
2 48 49
2 49 50
2 50 51
2 51 52
2 52 53
2 53 54
2 54 55
2 55 56
2 56 57
2 57 58
2 58 59
2 59 60
2 60 61
2 61 62
2 62 63
2 63 64
2 64 65
2 65 66
2 66 67
2 67 68
2 68 69
2 69 70
2 70 71
2 71 72
2 72 73
2 73 74
2 74 75
2 75 76
2 76 3
2 3 4
2 4 5
2 5 6
2 6 7
2 7 8
2 8 9
2 9 10
2 10 77
2 77 78
2 78 79
2 79 80
2 80 11
2 11 81
2 81 82
2 82 83
2 83 84
2 84 12
2 12 13
2 13 14
2 14 85
2 85 86
2 86 87
2 87 88
2 88 89
2 89 90
2 90 91
2 91 92
2 92 15
2 15 93
2 93 16
2 16 94
2 94 95
2 95 96
2 96 97
2 97 98
2 98 17
2 17 99
2 99 100
2 100 101
2 101 102
2 102 18
2 18 103
2 103 104
2 104 105
2 105 19
2 19 106
2 106 107
2 107 20
2 20 108
2 108 109
2 109 110
2 110 111
2 111 112
2 112 113
2 113 114
2 114 21
2 21 115
2 115 116
2 116 117
2 117 22
2 22 23
2 23 24
2 24 25
2 25 26
2 26 27
2 27 28
2 28 29
2 29 30
2 30 31
2 31 32
2 32 33
2 33 118
2 118 34
2 34 119
2 119 120
2 120 121
2 121 122
2 122 123
2 123 124
2 124 35
2 35 125
2 125 0
3 14 172 176
3 252 253 529
3 516 162 530
3 152 612 613
3 153 607 718
3 162 516 762
3 130 465 598
3 506 274 647
3 465 130 597
3 668 138 729
3 602 152 613
3 607 608 718
3 371 410 598
3 38 39 503
3 458 445 570
3 496 488 616
3 4 177 801
3 154 469 726
3 573 452 604
3 52 53 551
3 444 668 729
3 488 486 616
3 795 711 821
3 511 139 512
3 458 570 702
3 179 178 534
3 171 711 795
3 127 533 569
3 1 2 175
3 260 287 752
3 517 428 518
3 457 629 630
3 535 164 606
3 148 560 736
3 253 271 529
3 127 466 533
3 274 506 648
3 512 139 513
3 631 456 792
3 598 599 600
3 503 39 531
3 558 505 822
3 780 744 795
3 715 342 756
3 137 520 521
3 600 599 782
3 629 457 631
3 465 371 598
3 287 549 752
3 505 558 716
3 526 277 550
3 468 451 638
3 288 179 534
3 157 573 604
3 533 534 569
3 535 606 761
3 608 610 763
3 718 608 763
3 63 64 600
3 444 729 775
3 473 147 794
3 466 127 738
3 553 444 775
3 549 287 595
3 474 150 475
3 387 331 514
3 137 115 520
3 60 61 631
3 468 638 750
3 92 15 178
3 560 148 758
3 147 473 567
3 598 410 599
3 146 52 551
3 547 368 561
3 458 702 743
3 513 546 561
3 702 142 743
3 648 429 703
3 428 517 780
3 137 521 522
3 751 471 790
3 518 428 836
3 514 448 515
3 551 53 575
3 457 456 631
3 469 154 749
3 549 595 845
3 465 597 641
3 650 751 790
3 387 514 515
3 515 795 821
3 360 766 776
3 387 515 567
3 37 150 474
3 137 522 632
3 515 448 795
3 173 508 803
3 559 307 564
3 545 128 667
3 76 3 554
3 522 525 632
3 510 288 534
3 178 15 569
3 594 129 753
3 136 631 792
3 511 466 738
3 624 675 748
3 368 547 565
3 150 38 503
3 277 526 562
3 156 63 600
3 3 4 801
3 511 738 809
3 288 510 555
3 331 317 514
3 252 529 755
3 546 547 561
3 2 37 474
3 13 14 176
3 723 470 749
3 766 586 776
3 366 565 593
3 342 645 756
3 330 351 642
3 176 172 584
3 343 372 645
3 115 116 520
3 258 256 562
3 76 554 838
3 567 515 821
3 469 473 726
3 135 633 669
3 61 629 631
3 141 591 592
3 136 60 631
3 534 178 569
3 64 130 600
3 448 780 795
3 750 136 792
3 165 117 517
3 468 750 792
3 34 119 742
3 412 518 836
3 442 594 753
3 205 270 646
3 470 723 817
3 307 559 822
3 616 486 735
3 564 340 650
3 559 558 822
3 287 258 562
3 274 648 703
3 79 509 765
3 597 158 641
3 559 564 650
3 430 429 648
3 630 782 787
3 175 2 474
3 270 566 646
3 6 7 796
3 528 142 664
3 505 757 822
3 518 412 832
3 604 452 811
3 426 715 756
3 606 144 761
3 532 376 555
3 366 368 565
3 509 79 827
3 525 524 812
3 139 511 809
3 812 524 839
3 163 92 178
3 591 141 739
3 545 667 693
3 414 532 555
3 165 517 518
3 669 633 826
3 161 624 748
3 780 517 804
3 174 563 579
3 103 635 753
3 84 176 584
3 793 426 818
3 471 472 790
3 790 472 810
3 526 523 595
3 510 414 555
3 116 117 165
3 207 548 617
3 14 85 172
3 341 331 387
3 40 143 531
3 333 330 642
3 635 442 753
3 342 343 645
3 469 388 473
3 508 173 723
3 404 741 768
3 116 165 520
3 286 317 331
3 457 630 642
3 761 144 828
3 39 40 531
3 273 536 618
3 496 616 800
3 556 121 576
3 351 457 642
3 565 270 593
3 341 387 388
3 256 277 562
3 163 178 179
3 372 573 645
3 273 617 686
3 523 527 595
3 15 93 569
3 544 546 760
3 353 428 448
3 526 550 839
3 506 647 755
3 130 598 600
3 558 556 576
3 376 532 587
3 548 207 646
3 317 353 514
3 286 285 317
3 617 548 686
3 93 127 569
3 495 663 695
3 536 418 618
3 536 273 686
3 36 1 175
3 262 260 752
3 388 387 567
3 128 545 830
3 364 363 634
3 561 368 701
3 462 365 572
3 544 760 802
3 521 519 527
3 86 149 568
3 353 448 514
3 543 542 566
3 512 513 561
3 207 205 646
3 513 139 577
3 550 277 571
3 423 397 440
3 418 552 618
3 552 215 618
3 426 756 818
3 284 285 286
3 215 552 619
3 119 120 151
3 757 307 822
3 609 364 634
3 562 526 595
3 91 92 163
3 505 504 757
3 581 483 582
3 522 521 523
3 529 271 734
3 480 483 581
3 151 556 557
3 21 137 632
3 114 21 632
3 270 565 566
3 267 262 268
3 572 365 611
3 389 388 469
3 151 120 556
3 450 658 705
3 142 90 664
3 546 513 760
3 413 551 575
3 558 576 716
3 462 572 758
3 626 737 746
3 555 376 637
3 242 707 724
3 142 528 743
3 284 268 285
3 364 609 661
3 191 189 587
3 126 780 804
3 261 260 262
3 523 521 527
3 566 542 646
3 219 216 619
3 487 495 583
3 288 555 637
3 308 302 611
3 340 331 341
3 512 561 701
3 467 554 767
3 675 624 820
3 363 436 634
3 609 394 661
3 676 620 766
3 135 20 614
3 20 108 614
3 774 398 777
3 421 592 628
3 446 808 824
3 287 562 595
3 254 251 571
3 484 487 583
3 547 543 566
3 516 140 762
3 344 417 613
3 396 397 423
3 259 258 260
3 423 440 560
3 509 462 765
3 216 215 619
3 440 461 467
3 260 258 287
3 189 376 587
3 415 510 533
3 125 0 174
3 396 395 397
3 282 268 284
3 573 157 605
3 642 630 787
3 163 180 664
3 113 160 585
3 152 76 838
3 370 414 415
3 450 657 658
3 54 134 575
3 422 310 589
3 580 710 841
3 463 425 657
3 155 579 759
3 466 415 533
3 741 623 768
3 473 388 567
3 219 619 681
3 302 312 611
3 126 744 780
3 460 590 591
3 563 174 779
3 574 297 643
3 365 308 611
3 585 160 586
3 257 256 258
3 75 152 602
3 277 254 571
3 486 485 735
3 592 590 628
3 489 482 490
3 400 441 594
3 580 581 710
3 195 191 587
3 251 250 571
3 53 54 575
3 255 254 256
3 492 504 505
3 419 538 588
3 317 318 353
3 460 589 590
3 131 610 788
3 607 394 608
3 268 262 727
3 297 574 644
3 199 366 593
3 479 480 482
3 782 599 787
3 633 459 826
3 589 310 590
3 565 547 566
3 737 194 746
3 393 394 607
3 118 34 173
3 118 173 803
3 113 114 160
3 477 478 479
3 479 489 578
3 301 362 643
3 620 676 828
3 475 476 477
3 267 268 282
3 491 490 492
3 475 150 476
3 97 167 577
3 367 369 370
3 98 17 687
3 250 356 571
3 416 415 466
3 422 589 640
3 286 340 564
3 619 674 681
3 122 133 576
3 68 132 596
3 66 158 597
3 143 615 616
3 382 379 640
3 479 482 489
3 482 480 581
3 145 73 603
3 284 286 564
3 253 251 254
3 608 609 610
3 399 400 594
3 353 354 428
3 199 197 269
3 492 490 504
3 261 262 267
3 707 658 724
3 563 578 579
3 70 157 604
3 259 260 261
3 376 186 637
3 104 141 635
3 533 510 534
3 160 114 632
3 356 550 571
3 413 575 741
3 765 462 843
3 394 392 661
3 122 123 133
3 139 96 577
3 454 774 777
3 199 269 366
3 17 128 687
3 336 337 399
3 200 199 593
3 436 462 509
3 705 658 707
3 390 636 644
3 440 397 461
3 286 331 340
3 108 164 614
3 599 410 733
3 370 415 416
3 395 344 613
3 75 76 152
3 400 402 441
3 7 170 796
3 168 560 778
3 362 574 643
3 636 297 644
3 477 479 578
3 608 394 609
3 149 87 570
3 143 41 615
3 524 526 839
3 366 269 367
3 253 254 255
3 112 585 620
3 447 393 607
3 336 311 337
3 180 528 664
3 479 478 480
3 477 476 478
3 545 539 621
3 124 155 601
3 489 490 491
3 393 392 394
3 221 219 681
3 363 365 436
3 108 109 164
3 399 337 400
3 441 402 588
3 629 156 630
3 312 395 396
3 563 477 578
3 589 382 640
3 208 207 617
3 442 399 594
3 356 359 550
3 633 135 747
3 256 254 277
3 436 365 462
3 174 579 833
3 257 258 259
3 483 484 583
3 91 163 664
3 370 369 414
3 133 123 601
3 86 87 149
3 557 558 559
3 369 269 652
3 415 414 510
3 255 256 257
3 110 144 606
3 402 419 588
3 301 302 308
3 663 495 805
3 62 156 629
3 120 121 556
3 362 308 363
3 134 622 623
3 710 283 841
3 309 311 336
3 570 88 702
3 213 273 618
3 103 104 635
3 625 349 626
3 74 602 603
3 632 525 834
3 341 388 389
3 74 75 602
3 312 396 611
3 590 310 628
3 97 98 167
3 464 730 769
3 595 527 845
3 363 308 365
3 121 122 576
3 134 55 622
3 164 109 606
3 37 38 150
3 289 280 290
3 674 311 681
3 158 67 596
3 130 65 597
3 475 477 563
3 587 532 652
3 542 548 646
3 591 590 592
3 296 301 643
3 487 493 495
3 400 401 402
3 619 552 674
3 301 308 362
3 96 97 577
3 531 143 735
3 132 69 604
3 161 43 624
3 203 200 593
3 112 113 585
3 588 538 693
3 419 537 538
3 181 179 288
3 205 203 270
3 306 300 627
3 379 281 640
3 538 539 545
3 250 278 356
3 576 133 716
3 350 349 625
3 213 211 273
3 626 349 627
3 195 587 652
3 68 69 132
3 66 67 158
3 64 65 130
3 490 482 580
3 270 203 593
3 296 299 301
3 539 541 621
3 16 94 738
3 610 609 634
3 95 96 139
3 356 357 359
3 141 105 739
3 349 306 627
3 211 208 617
3 42 161 615
3 70 71 157
3 541 544 621
3 40 41 143
3 396 423 572
3 87 88 570
3 367 269 369
3 573 605 645
3 62 63 156
3 249 248 250
3 541 543 544
3 290 280 291
3 374 350 625
3 621 544 802
3 538 537 539
3 215 213 618
3 381 459 633
3 420 374 439
3 104 105 141
3 249 250 251
3 72 73 145
3 309 272 311
3 291 280 654
3 389 469 470
3 301 299 302
3 56 159 622
3 544 543 546
3 402 418 419
3 189 186 376
3 159 57 638
3 61 62 629
3 273 211 617
3 297 294 643
3 140 516 820
3 67 68 596
3 65 66 597
3 48 138 639
3 281 229 659
3 480 481 483
3 144 111 620
3 439 374 625
3 42 43 161
3 677 246 678
3 111 112 620
3 326 241 651
3 69 70 604
3 204 203 205
3 206 205 207
3 44 140 624
3 73 74 603
3 54 55 134
3 56 57 159
3 59 60 136
3 212 211 213
3 381 379 382
3 532 369 652
3 366 367 368
3 292 294 297
3 421 399 442
3 313 427 673
3 41 42 615
3 400 337 401
3 280 187 654
3 391 392 393
3 527 519 832
3 186 183 637
3 419 536 537
3 247 246 248
3 380 379 381
3 405 381 633
3 557 559 650
3 381 382 459
3 247 248 249
3 391 390 392
3 198 197 199
3 294 296 643
3 250 248 278
3 196 195 197
3 402 401 418
3 51 52 146
3 362 363 364
3 210 208 211
3 252 251 253
3 392 390 644
3 202 200 203
3 582 483 583
3 498 500 529
3 332 326 651
3 640 281 659
3 356 278 357
3 44 45 140
3 43 44 624
3 162 47 639
3 55 56 622
3 309 336 628
3 269 197 652
3 57 58 638
3 307 284 564
3 214 213 215
3 390 303 636
3 146 553 775
3 375 374 420
3 46 47 162
3 352 332 438
3 245 246 247
3 193 191 195
3 48 49 138
3 123 124 601
3 355 303 390
3 109 110 606
3 290 291 292
3 346 291 654
3 313 315 427
3 370 416 701
3 378 281 379
3 596 132 771
3 380 381 405
3 282 284 307
3 245 243 246
3 459 382 460
3 627 300 699
3 373 350 374
3 47 48 639
3 89 90 142
3 182 181 183
3 424 677 678
3 197 195 652
3 541 542 543
3 324 398 649
3 259 263 695
3 231 229 281
3 255 257 663
3 438 332 651
3 476 150 503
3 336 399 421
3 10 77 736
3 220 222 670
3 557 556 558
3 167 98 687
3 460 382 589
3 378 379 380
3 386 385 429
3 539 540 541
3 249 251 252
3 336 421 628
3 18 103 753
3 276 235 665
3 204 205 206
3 249 252 647
3 343 306 349
3 317 285 318
3 85 86 568
3 110 111 144
3 182 183 184
3 247 249 647
3 202 203 204
3 386 429 430
3 274 247 647
3 245 247 274
3 422 640 659
3 419 418 536
3 198 199 200
3 223 221 272
3 210 211 212
3 206 207 208
3 322 324 649
3 324 339 398
3 184 185 187
3 325 329 437
3 275 272 309
3 231 281 378
3 335 316 653
3 212 213 214
3 238 235 276
3 275 309 310
3 385 335 653
3 279 187 280
3 228 227 229
3 384 335 385
3 124 35 155
3 196 197 198
3 193 195 196
3 226 224 227
3 546 543 547
3 229 227 659
3 292 293 294
3 227 656 659
3 375 420 454
3 294 295 296
3 310 309 628
3 315 314 672
3 416 466 511
3 384 385 386
3 223 272 275
3 272 221 681
3 322 649 682
3 227 224 656
3 361 424 425
3 656 422 659
3 373 374 375
3 275 310 422
3 302 304 312
3 626 627 725
3 230 229 231
3 239 243 244
3 244 243 245
3 396 572 611
3 657 425 658
3 214 215 216
3 107 20 135
3 325 437 688
3 228 229 230
3 334 383 409
3 225 266 319
3 248 246 677
3 314 334 672
3 234 232 235
3 233 264 313
3 504 490 580
3 222 225 670
3 313 314 315
3 384 386 443
3 500 501 506
3 484 486 487
3 226 227 228
3 498 499 500
3 494 497 498
3 253 255 271
3 409 444 553
3 21 115 137
3 383 335 384
3 343 349 350
3 289 290 303
3 580 482 581
3 480 478 481
3 539 537 540
3 223 275 656
3 290 292 636
3 446 393 447
3 361 425 463
3 653 316 660
3 239 242 243
3 319 320 321
3 218 216 219
3 271 255 663
3 234 235 236
3 106 107 669
3 437 329 662
3 409 383 444
3 507 516 530
3 184 183 185
3 89 142 702
3 303 290 636
3 257 259 695
3 334 335 383
3 541 540 542
3 275 422 656
3 413 408 453
3 313 264 314
3 292 297 636
3 334 316 335
3 230 231 232
3 500 499 501
3 183 181 637
3 673 427 683
3 361 358 424
3 188 186 189
3 233 234 264
3 279 280 289
3 243 242 678
3 224 223 656
3 185 183 186
3 233 232 234
3 231 378 665
3 321 347 348
3 487 488 493
3 700 244 703
3 236 235 238
3 181 288 637
3 246 243 678
3 380 405 406
3 201 200 202
3 404 403 408
3 314 316 334
3 462 758 843
3 314 264 316
3 236 238 239
3 17 99 128
3 222 221 223
3 99 100 667
3 100 101 166
3 101 102 666
3 102 18 129
3 190 189 191
3 296 298 299
3 239 238 242
3 384 443 668
3 319 266 320
3 538 545 693
3 222 223 224
3 230 232 233
3 383 384 668
3 192 191 193
3 141 592 825
3 406 405 449
3 429 700 703
3 347 320 403
3 225 319 670
3 225 224 226
3 371 338 410
3 524 523 526
3 312 344 395
3 357 358 360
3 450 449 535
3 311 272 681
3 498 497 499
3 19 106 169
3 655 654 679
3 209 208 210
3 234 236 660
3 450 535 657
3 413 453 551
3 476 503 696
3 362 364 574
3 334 409 672
3 337 311 674
3 228 230 673
3 644 574 661
3 357 278 358
3 351 332 352
3 225 226 266
3 222 224 225
3 264 234 660
3 217 216 218
3 522 523 524
3 483 481 484
3 330 326 332
3 107 135 669
3 187 185 679
3 501 499 502
3 185 186 188
3 517 117 804
3 404 408 413
3 451 434 464
3 347 403 404
3 540 537 686
3 444 383 668
3 501 502 507
3 321 320 347
3 507 502 516
3 233 313 673
3 418 401 552
3 406 449 450
3 355 390 391
3 235 232 665
3 378 380 689
3 198 200 201
3 372 350 373
3 375 454 455
3 201 240 322
3 322 323 324
3 232 231 665
3 190 192 194
3 324 338 339
3 654 187 679
3 339 371 377
3 377 465 641
3 537 536 686
3 220 219 221
3 499 497 675
3 226 228 683
3 351 456 457
3 329 333 662
3 302 299 304
3 276 665 689
3 424 358 677
3 493 488 494
3 188 189 190
3 329 330 333
3 429 385 700
3 210 212 684
3 433 434 435
3 392 644 661
3 328 432 433
3 192 193 237
3 214 216 217
3 190 191 192
3 217 265 327
3 206 208 209
3 328 265 431
3 201 202 240
3 33 118 803
3 316 264 660
3 435 451 468
3 209 241 325
3 266 226 683
3 230 233 673
3 325 326 329
3 321 348 720
3 360 361 676
3 220 221 222
3 218 219 220
3 278 248 677
3 651 241 684
3 342 306 343
3 665 378 689
3 494 496 497
3 292 291 293
3 324 323 338
3 339 338 371
3 377 371 465
3 180 181 182
3 322 240 323
3 380 406 689
3 372 452 573
3 217 218 265
3 209 210 241
3 542 540 548
3 239 244 692
3 360 358 361
3 330 332 351
3 351 352 456
3 180 179 181
3 372 373 452
3 487 486 488
3 692 244 700
3 343 350 372
3 435 434 451
3 169 106 669
3 358 278 677
3 93 16 127
3 767 554 801
3 346 654 655
3 228 673 683
3 244 245 703
3 494 488 496
3 329 326 330
3 325 241 326
3 327 265 328
3 433 432 434
3 548 540 686
3 361 463 676
3 128 99 667
3 100 166 667
3 166 101 666
3 102 129 666
3 373 375 680
3 328 431 432
3 502 499 675
3 294 293 295
3 655 679 690
3 196 198 682
3 237 698 708
3 574 364 661
3 241 210 684
3 438 651 717
3 416 512 701
3 184 187 279
3 401 337 674
3 163 179 180
3 259 261 263
3 296 295 298
3 293 291 346
3 452 373 680
3 185 188 679
3 391 393 446
3 660 236 692
3 305 300 306
3 204 206 688
3 552 401 674
3 653 660 692
3 77 78 148
3 484 485 486
3 474 475 779
3 367 370 701
3 190 194 690
3 663 257 695
3 236 239 692
3 650 340 751
3 201 322 682
3 375 455 680
3 305 306 342
3 198 201 682
3 218 220 685
3 77 148 736
3 212 214 691
3 220 670 685
3 626 725 737
3 265 218 685
3 414 369 532
3 298 295 300
3 368 367 701
3 82 83 153
3 579 578 759
3 298 300 305
3 90 91 664
3 653 692 700
3 682 649 698
3 206 209 688
3 667 166 693
3 209 325 688
3 237 193 698
3 678 242 724
3 319 321 712
3 684 212 691
3 431 265 685
3 217 327 691
3 575 134 741
3 214 217 691
3 345 303 355
3 188 190 690
3 484 481 485
3 581 582 710
3 312 304 344
3 679 188 690
3 80 11 131
3 417 407 426
3 397 395 612
3 240 704 714
3 621 802 830
3 688 437 704
3 266 683 706
3 240 202 704
3 403 320 706
3 689 406 705
3 193 196 698
3 478 476 696
3 196 682 698
3 242 238 707
3 344 304 407
3 304 299 697
3 738 94 809
3 385 653 700
3 720 348 730
3 344 407 417
3 138 49 729
3 698 649 708
3 403 706 713
3 245 274 703
3 610 634 788
3 182 184 671
3 299 298 697
3 204 688 704
3 202 204 704
3 454 777 785
3 683 427 706
3 438 717 731
3 498 529 734
3 492 505 716
3 522 524 525
3 625 626 746
3 406 450 705
3 276 689 705
3 431 685 712
3 407 304 697
3 612 395 613
3 685 670 712
3 355 391 694
3 289 303 345
3 481 478 696
3 408 403 713
3 88 89 702
3 446 447 808
3 320 266 706
3 293 346 699
3 557 650 790
3 345 355 445
3 300 295 699
3 160 632 834
3 7 8 170
3 409 553 728
3 410 338 721
3 276 705 707
3 267 282 283
3 345 445 458
3 706 427 713
3 298 305 697
3 704 437 714
3 485 481 696
3 425 424 724
3 493 494 734
3 353 318 354
3 658 425 724
3 295 293 699
3 467 461 554
3 453 408 719
3 238 276 707
3 180 182 528
3 423 560 758
3 638 58 750
3 649 398 708
3 579 155 833
3 427 315 713
3 416 511 512
3 455 454 785
3 408 713 719
3 445 355 694
3 391 446 694
3 59 136 750
3 610 131 763
3 437 662 714
3 464 434 730
3 285 268 727
3 620 585 766
3 184 279 671
3 328 433 731
3 670 319 712
3 318 285 727
3 697 305 715
3 82 153 718
3 731 433 740
3 407 697 715
3 345 458 709
3 323 240 714
3 627 699 725
3 81 82 718
3 453 719 728
3 495 695 789
3 712 321 720
3 528 182 671
3 713 315 719
3 279 289 709
3 783 455 785
3 305 342 715
3 315 672 719
3 404 413 741
3 714 662 721
3 545 621 830
3 426 407 715
3 289 345 709
3 489 491 759
3 449 405 747
3 624 140 820
3 495 493 805
3 26 27 147
3 605 157 772
3 529 500 755
3 105 19 739
3 354 411 412
3 323 714 721
3 808 568 824
3 432 431 720
3 138 668 819
3 675 497 748
3 140 45 762
3 338 323 721
3 560 440 778
3 46 162 762
3 651 684 717
3 411 318 727
3 719 672 728
3 699 346 725
3 424 678 724
3 346 655 725
3 684 691 717
3 157 71 772
3 412 411 549
3 433 435 740
3 717 327 731
3 691 327 717
3 657 535 761
3 431 712 720
3 72 145 772
3 49 50 729
3 360 676 766
3 194 192 754
3 725 655 737
3 135 614 747
3 165 518 519
3 410 721 733
3 432 720 730
3 771 132 811
3 672 409 728
3 146 551 814
3 459 460 797
3 690 194 737
3 671 279 709
3 143 616 735
3 442 635 825
3 716 133 799
3 154 722 749
3 434 432 730
3 740 435 745
3 438 731 740
3 635 141 825
3 503 531 807
3 327 328 731
3 78 79 765
3 51 146 775
3 494 498 734
3 435 468 745
3 560 168 736
3 553 146 814
3 28 29 726
3 340 341 751
3 662 333 733
3 95 139 809
3 144 620 828
3 648 506 784
3 119 151 810
3 354 318 411
3 513 577 760
3 134 623 741
3 347 404 768
3 461 397 612
3 583 495 789
3 31 32 508
3 398 339 777
3 463 657 761
3 655 690 737
3 19 169 739
3 170 767 796
3 352 438 740
3 471 470 472
3 386 430 781
3 30 31 722
3 29 30 154
3 779 174 829
3 721 662 733
3 588 693 770
3 155 35 833
3 730 348 769
3 132 604 811
3 357 360 776
3 506 501 784
3 440 467 778
3 263 261 773
3 722 723 749
3 165 519 520
3 352 740 745
3 449 747 806
3 693 166 770
3 129 594 816
3 81 718 763
3 439 625 746
3 694 824 831
3 727 262 752
3 519 518 832
3 283 282 757
3 554 3 801
3 671 709 743
3 530 162 791
3 127 16 738
3 405 633 747
3 175 474 779
3 709 458 743
3 25 26 711
3 582 789 844
3 456 352 745
3 520 519 521
3 8 9 732
3 131 11 763
3 156 600 782
3 607 153 813
3 9 10 168
3 173 34 742
3 58 59 750
3 497 496 748
3 528 671 743
3 623 622 786
3 417 793 815
3 436 509 788
3 83 84 798
3 578 489 759
3 746 194 754
3 647 252 755
3 421 442 825
3 472 470 817
3 568 149 824
3 420 439 764
3 283 710 773
3 729 50 775
3 389 470 471
3 79 80 827
3 164 535 806
3 516 502 820
3 129 18 753
3 492 716 799
3 789 263 844
3 441 588 770
3 470 469 749
3 172 85 568
3 577 167 760
3 454 420 774
3 11 81 763
3 192 237 754
3 267 283 773
3 771 455 783
3 616 615 800
3 572 423 758
3 551 453 814
3 500 506 755
3 448 428 780
3 824 149 831
3 799 601 837
3 645 605 756
3 147 567 821
3 443 791 819
3 747 614 806
3 793 603 815
3 125 174 833
3 767 177 796
3 282 307 757
3 696 503 807
3 45 46 762
3 24 25 171
3 463 761 828
3 739 169 797
3 26 147 711
3 602 613 815
3 585 586 766
3 151 557 790
3 549 411 752
3 591 739 797
3 29 154 726
3 354 412 836
3 439 754 764
3 491 799 837
3 582 583 789
3 754 237 764
3 341 389 751
3 31 508 722
3 148 78 765
3 430 648 784
3 154 30 722
3 348 347 768
3 420 764 774
3 133 601 799
3 728 553 814
3 411 727 752
3 237 708 764
3 760 167 802
3 158 596 783
3 0 36 829
3 417 426 793
3 145 793 818
3 439 746 754
3 147 27 794
3 174 0 829
3 788 509 827
3 166 666 770
3 443 781 791
3 168 10 736
3 71 72 772
3 622 159 786
3 722 508 723
3 680 455 771
3 84 584 798
3 594 441 816
3 50 51 775
3 359 357 776
3 459 797 826
3 630 156 782
3 742 119 810
3 175 779 829
3 23 24 744
3 641 158 783
3 145 603 793
3 339 377 777
3 475 563 779
3 615 161 800
3 28 726 794
3 441 770 816
3 261 267 773
3 764 708 774
3 599 733 787
3 777 377 785
3 744 171 795
3 769 623 786
3 443 386 781
3 638 451 823
3 9 168 732
3 333 642 787
3 641 783 785
3 634 436 788
3 501 507 784
3 377 641 785
3 584 172 842
3 464 769 786
3 708 398 774
3 151 790 810
3 389 471 751
3 695 263 789
3 772 145 818
3 162 639 791
3 786 159 823
3 570 445 831
3 668 443 819
3 27 28 794
3 35 125 833
3 430 784 835
3 592 421 825
3 531 735 807
3 491 492 799
3 613 417 815
3 460 591 797
3 745 468 792
3 464 786 823
3 680 771 811
3 770 666 816
3 535 449 806
3 171 25 711
3 614 164 806
3 22 23 126
3 694 446 824
3 167 687 802
3 603 602 815
3 791 639 819
3 733 333 787
3 170 8 732
3 612 152 838
3 784 507 835
3 493 734 805
3 172 808 842
3 461 612 838
3 153 83 798
3 32 33 803
3 508 32 803
3 348 768 769
3 735 485 807
3 447 607 813
3 601 155 837
3 768 623 769
3 149 570 831
3 586 160 834
3 159 638 823
3 94 95 809
3 778 467 840
3 759 491 837
3 711 147 821
3 271 663 805
3 639 138 819
3 781 430 835
3 131 788 827
3 802 687 830
3 550 359 839
3 776 586 812
3 359 812 839
3 161 748 800
3 172 568 808
3 452 680 811
3 485 696 807
3 456 745 792
3 666 129 816
3 732 168 778
3 687 128 830
3 726 473 794
3 596 771 783
3 451 464 823
3 504 580 841
3 5 6 796
3 502 675 820
3 507 530 835
3 169 669 826
3 781 530 791
3 676 463 828
3 734 271 805
3 173 742 817
3 748 496 800
3 24 171 744
3 80 131 827
3 263 773 844
3 732 778 840
3 177 767 801
3 428 354 836
3 812 586 834
3 283 757 841
3 453 728 814
3 445 694 831
3 723 173 817
3 22 126 804
3 710 582 844
3 412 549 845
3 605 772 818
3 126 23 744
3 554 461 838
3 742 472 817
3 756 605 818
3 4 5 177
3 36 175 829
3 472 742 810
3 757 504 841
3 758 148 843
3 155 759 837
3 359 776 812
3 797 169 826
3 798 584 842
3 153 798 813
3 148 765 843
3 813 798 842
3 530 781 835
3 170 732 840
3 767 170 840
3 525 812 834
3 773 710 844
3 467 767 840
3 177 5 796
3 808 447 842
3 447 813 842
3 12 13 176
3 832 412 845
3 527 832 845
3 117 22 804
3 84 12 176

CELL_TYPES 1726
1
1
1
1
1
1
1
1
1
1
1
1
1
1
1
1
1
1
1
1
1
1
1
1
1
1
1
1
1
1
1
1
1
1
1
1
3
3
3
3
3
3
3
3
3
3
3
3
3
3
3
3
3
3
3
3
3
3
3
3
3
3
3
3
3
3
3
3
3
3
3
3
3
3
3
3
3
3
3
3
3
3
3
3
3
3
3
3
3
3
3
3
3
3
3
3
3
3
3
3
3
3
3
3
3
3
3
3
3
3
3
3
3
3
3
3
3
3
3
3
3
3
3
3
3
3
3
3
3
3
3
3
3
3
3
3
3
3
3
3
3
3
3
3
3
3
3
3
3
3
3
3
3
3
3
3
3
3
3
3
3
3
5
5
5
5
5
5
5
5
5
5
5
5
5
5
5
5
5
5
5
5
5
5
5
5
5
5
5
5
5
5
5
5
5
5
5
5
5
5
5
5
5
5
5
5
5
5
5
5
5
5
5
5
5
5
5
5
5
5
5
5
5
5
5
5
5
5
5
5
5
5
5
5
5
5
5
5
5
5
5
5
5
5
5
5
5
5
5
5
5
5
5
5
5
5
5
5
5
5
5
5
5
5
5
5
5
5
5
5
5
5
5
5
5
5
5
5
5
5
5
5
5
5
5
5
5
5
5
5
5
5
5
5
5
5
5
5
5
5
5
5
5
5
5
5
5
5
5
5
5
5
5
5
5
5
5
5
5
5
5
5
5
5
5
5
5
5
5
5
5
5
5
5
5
5
5
5
5
5
5
5
5
5
5
5
5
5
5
5
5
5
5
5
5
5
5
5
5
5
5
5
5
5
5
5
5
5
5
5
5
5
5
5
5
5
5
5
5
5
5
5
5
5
5
5
5
5
5
5
5
5
5
5
5
5
5
5
5
5
5
5
5
5
5
5
5
5
5
5
5
5
5
5
5
5
5
5
5
5
5
5
5
5
5
5
5
5
5
5
5
5
5
5
5
5
5
5
5
5
5
5
5
5
5
5
5
5
5
5
5
5
5
5
5
5
5
5
5
5
5
5
5
5
5
5
5
5
5
5
5
5
5
5
5
5
5
5
5
5
5
5
5
5
5
5
5
5
5
5
5
5
5
5
5
5
5
5
5
5
5
5
5
5
5
5
5
5
5
5
5
5
5
5
5
5
5
5
5
5
5
5
5
5
5
5
5
5
5
5
5
5
5
5
5
5
5
5
5
5
5
5
5
5
5
5
5
5
5
5
5
5
5
5
5
5
5
5
5
5
5
5
5
5
5
5
5
5
5
5
5
5
5
5
5
5
5
5
5
5
5
5
5
5
5
5
5
5
5
5
5
5
5
5
5
5
5
5
5
5
5
5
5
5
5
5
5
5
5
5
5
5
5
5
5
5
5
5
5
5
5
5
5
5
5
5
5
5
5
5
5
5
5
5
5
5
5
5
5
5
5
5
5
5
5
5
5
5
5
5
5
5
5
5
5
5
5
5
5
5
5
5
5
5
5
5
5
5
5
5
5
5
5
5
5
5
5
5
5
5
5
5
5
5
5
5
5
5
5
5
5
5
5
5
5
5
5
5
5
5
5
5
5
5
5
5
5
5
5
5
5
5
5
5
5
5
5
5
5
5
5
5
5
5
5
5
5
5
5
5
5
5
5
5
5
5
5
5
5
5
5
5
5
5
5
5
5
5
5
5
5
5
5
5
5
5
5
5
5
5
5
5
5
5
5
5
5
5
5
5
5
5
5
5
5
5
5
5
5
5
5
5
5
5
5
5
5
5
5
5
5
5
5
5
5
5
5
5
5
5
5
5
5
5
5
5
5
5
5
5
5
5
5
5
5
5
5
5
5
5
5
5
5
5
5
5
5
5
5
5
5
5
5
5
5
5
5
5
5
5
5
5
5
5
5
5
5
5
5
5
5
5
5
5
5
5
5
5
5
5
5
5
5
5
5
5
5
5
5
5
5
5
5
5
5
5
5
5
5
5
5
5
5
5
5
5
5
5
5
5
5
5
5
5
5
5
5
5
5
5
5
5
5
5
5
5
5
5
5
5
5
5
5
5
5
5
5
5
5
5
5
5
5
5
5
5
5
5
5
5
5
5
5
5
5
5
5
5
5
5
5
5
5
5
5
5
5
5
5
5
5
5
5
5
5
5
5
5
5
5
5
5
5
5
5
5
5
5
5
5
5
5
5
5
5
5
5
5
5
5
5
5
5
5
5
5
5
5
5
5
5
5
5
5
5
5
5
5
5
5
5
5
5
5
5
5
5
5
5
5
5
5
5
5
5
5
5
5
5
5
5
5
5
5
5
5
5
5
5
5
5
5
5
5
5
5
5
5
5
5
5
5
5
5
5
5
5
5
5
5
5
5
5
5
5
5
5
5
5
5
5
5
5
5
5
5
5
5
5
5
5
5
5
5
5
5
5
5
5
5
5
5
5
5
5
5
5
5
5
5
5
5
5
5
5
5
5
5
5
5
5
5
5
5
5
5
5
5
5
5
5
5
5
5
5
5
5
5
5
5
5
5
5
5
5
5
5
5
5
5
5
5
5
5
5
5
5
5
5
5
5
5
5
5
5
5
5
5
5
5
5
5
5
5
5
5
5
5
5
5
5
5
5
5
5
5
5
5
5
5
5
5
5
5
5
5
5
5
5
5
5
5
5
5
5
5
5
5
5
5
5
5
5
5
5
5
5
5
5
5
5
5
5
5
5
5
5
5
5
5
5
5
5
5
5
5
5
5
5
5
5
5
5
5
5
5
5
5
5
5
5
5
5
5
5
5
5
5
5
5
5
5
5
5
5
5
5
5
5
5
5
5
5
5
5
5
5
5
5
5
5
5
5
5
5
5
5
5
5
5
5
5
5
5
5
5
5
5
5
5
5
5
5
5
5
5
5
5
5
5
5
5
5
5
5
5
5
5
5
5
5
5
5
5
5
5
5
5
5
5
5
5
5
5
5
5
5
5
5
5
5
5
5
5
5
5
5
5
5
5
5
5
5
5
5
5
5
5
5
5
5
5
5
5
5
5
5
5
5
5
5
5
5
5
5
5
5
5
5
5
5
5
5
5
5
5
5
5
5
5
5
5
5
5
5
5
5
5
5
5
5
5
5
5
5
5
5
5
5
5
5
5
5
5
5
5
5
5
5
5
5
5
5
5
5
5
5
5
5
5
5
5
5
5
5
5
5
5
5
5
5
5
5
5
5
5
5
5
5
5
5
5
5
5
5
5
5
5
5
5
5
5
5
5
5
5
5
5
5
5
5
5
5
5
5
5
5
5
5
5
5
5
5
5
5
5
5
5
5
5
5
5
5
5
5
5
5
5
5
5
5
5
5
5
5
5
5
5
5
5
5
5
5
5
5
5
5
5
5
5
5
5
5
5
5
5
5
5
5
5
5
5
5
5
5
5
5
5
5
5
5
5
5
5
5
5
5
5
5
5
5
5
5
5
5
5
5
5
5
5
5
5
5
5
5
5
5
5
5
5
5
5
5
5
5
5
5
5
5
5
5
5
5
5
5
5
5
5
5
5
5
5
5
5
5
5
5
5
5
5
5
5
5
5
5
5
5
5
5
5
5
5
5
5
5
5
5
5
5
5
5
5
5
5
5
5
5
5
5
5
5
5
5
5
5
5
5
5
5
5
5
5
5
5
5
5
5
5
5
5
5
5
5
5
5
5
5
5
5
5
5
5
5
5
5
5
5
5
5
5
5
5
5
5
5
5
5
5
5
5
5
5
5
5
5
5
5
5
5
5
5
5
5
5
5
5
5
5
5
5
5
5
5
5
5
5
5
5
5
5
5
5
5
5
5
5
5
5
5
5
5
5
5
5
5
5
5
5
5
5
5
5
5
5
5
5
5
5
5
5
5
5
5
5
5
5
